ISO-10303-21;
HEADER;
FILE_DESCRIPTION(('Open CASCADE Model'),'2;1');
FILE_NAME('Open CASCADE Shape Model','2026-05-15T19:27:55',('Author'),(
    'Open CASCADE'),'Open CASCADE STEP processor 7.8','build123d',
  'Unknown');
FILE_SCHEMA(('AUTOMOTIVE_DESIGN { 1 0 10303 214 1 1 1 1 }'));
ENDSEC;
DATA;
#1 = APPLICATION_PROTOCOL_DEFINITION('international standard',
  'automotive_design',2000,#2);
#2 = APPLICATION_CONTEXT(
  'core data for automotive mechanical design processes');
#3 = SHAPE_DEFINITION_REPRESENTATION(#4,#10);
#4 = PRODUCT_DEFINITION_SHAPE('','',#5);
#5 = PRODUCT_DEFINITION('design','',#6,#9);
#6 = PRODUCT_DEFINITION_FORMATION('','',#7);
#7 = PRODUCT('COMPOUND','COMPOUND','',(#8));
#8 = PRODUCT_CONTEXT('',#2,'mechanical');
#9 = PRODUCT_DEFINITION_CONTEXT('part definition',#2,'design');
#10 = SHAPE_REPRESENTATION('',(#11,#15,#113,#211,#309,#407),#1669);
#11 = AXIS2_PLACEMENT_3D('',#12,#13,#14);
#12 = CARTESIAN_POINT('',(0.,0.,0.));
#13 = DIRECTION('',(0.,0.,1.));
#14 = DIRECTION('',(1.,0.,-0.));
#15 = MANIFOLD_SOLID_BREP('',#16);
#16 = CLOSED_SHELL('',(#17,#105,#109));
#17 = ADVANCED_FACE('',(#18),#31,.T.);
#18 = FACE_BOUND('',#19,.T.);
#19 = EDGE_LOOP('',(#20,#54,#77,#104));
#20 = ORIENTED_EDGE('',*,*,#21,.F.);
#21 = EDGE_CURVE('',#22,#22,#24,.T.);
#22 = VERTEX_POINT('',#23);
#23 = CARTESIAN_POINT('',(55.,-3.673940397442E-16,-21.5));
#24 = SURFACE_CURVE('',#25,(#30,#42),.PCURVE_S1.);
#25 = CIRCLE('',#26,1.5);
#26 = AXIS2_PLACEMENT_3D('',#27,#28,#29);
#27 = CARTESIAN_POINT('',(55.,0.,-20.));
#28 = DIRECTION('',(1.,-0.,0.));
#29 = DIRECTION('',(0.,0.,-1.));
#30 = PCURVE('',#31,#36);
#31 = CYLINDRICAL_SURFACE('',#32,1.5);
#32 = AXIS2_PLACEMENT_3D('',#33,#34,#35);
#33 = CARTESIAN_POINT('',(45.,0.,-20.));
#34 = DIRECTION('',(1.,0.,0.));
#35 = DIRECTION('',(0.,0.,-1.));
#36 = DEFINITIONAL_REPRESENTATION('',(#37),#41);
#37 = LINE('',#38,#39);
#38 = CARTESIAN_POINT('',(0.,10.));
#39 = VECTOR('',#40,1.);
#40 = DIRECTION('',(1.,0.));
#41 = ( GEOMETRIC_REPRESENTATION_CONTEXT(2) 
PARAMETRIC_REPRESENTATION_CONTEXT() REPRESENTATION_CONTEXT('2D SPACE',''
  ) );
#42 = PCURVE('',#43,#48);
#43 = PLANE('',#44);
#44 = AXIS2_PLACEMENT_3D('',#45,#46,#47);
#45 = CARTESIAN_POINT('',(55.,0.,-20.));
#46 = DIRECTION('',(1.,0.,0.));
#47 = DIRECTION('',(0.,0.,-1.));
#48 = DEFINITIONAL_REPRESENTATION('',(#49),#53);
#49 = CIRCLE('',#50,1.5);
#50 = AXIS2_PLACEMENT_2D('',#51,#52);
#51 = CARTESIAN_POINT('',(0.,0.));
#52 = DIRECTION('',(1.,0.));
#53 = ( GEOMETRIC_REPRESENTATION_CONTEXT(2) 
PARAMETRIC_REPRESENTATION_CONTEXT() REPRESENTATION_CONTEXT('2D SPACE',''
  ) );
#54 = ORIENTED_EDGE('',*,*,#55,.F.);
#55 = EDGE_CURVE('',#56,#22,#58,.T.);
#56 = VERTEX_POINT('',#57);
#57 = CARTESIAN_POINT('',(45.,-3.673940397442E-16,-21.5));
#58 = SEAM_CURVE('',#59,(#63,#70),.PCURVE_S1.);
#59 = LINE('',#60,#61);
#60 = CARTESIAN_POINT('',(45.,-3.673940397442E-16,-21.5));
#61 = VECTOR('',#62,1.);
#62 = DIRECTION('',(1.,0.,0.));
#63 = PCURVE('',#31,#64);
#64 = DEFINITIONAL_REPRESENTATION('',(#65),#69);
#65 = LINE('',#66,#67);
#66 = CARTESIAN_POINT('',(6.28318530718,-0.));
#67 = VECTOR('',#68,1.);
#68 = DIRECTION('',(0.,1.));
#69 = ( GEOMETRIC_REPRESENTATION_CONTEXT(2) 
PARAMETRIC_REPRESENTATION_CONTEXT() REPRESENTATION_CONTEXT('2D SPACE',''
  ) );
#70 = PCURVE('',#31,#71);
#71 = DEFINITIONAL_REPRESENTATION('',(#72),#76);
#72 = LINE('',#73,#74);
#73 = CARTESIAN_POINT('',(0.,-0.));
#74 = VECTOR('',#75,1.);
#75 = DIRECTION('',(0.,1.));
#76 = ( GEOMETRIC_REPRESENTATION_CONTEXT(2) 
PARAMETRIC_REPRESENTATION_CONTEXT() REPRESENTATION_CONTEXT('2D SPACE',''
  ) );
#77 = ORIENTED_EDGE('',*,*,#78,.T.);
#78 = EDGE_CURVE('',#56,#56,#79,.T.);
#79 = SURFACE_CURVE('',#80,(#85,#92),.PCURVE_S1.);
#80 = CIRCLE('',#81,1.5);
#81 = AXIS2_PLACEMENT_3D('',#82,#83,#84);
#82 = CARTESIAN_POINT('',(45.,0.,-20.));
#83 = DIRECTION('',(1.,-0.,0.));
#84 = DIRECTION('',(0.,0.,-1.));
#85 = PCURVE('',#31,#86);
#86 = DEFINITIONAL_REPRESENTATION('',(#87),#91);
#87 = LINE('',#88,#89);
#88 = CARTESIAN_POINT('',(0.,0.));
#89 = VECTOR('',#90,1.);
#90 = DIRECTION('',(1.,0.));
#91 = ( GEOMETRIC_REPRESENTATION_CONTEXT(2) 
PARAMETRIC_REPRESENTATION_CONTEXT() REPRESENTATION_CONTEXT('2D SPACE',''
  ) );
#92 = PCURVE('',#93,#98);
#93 = PLANE('',#94);
#94 = AXIS2_PLACEMENT_3D('',#95,#96,#97);
#95 = CARTESIAN_POINT('',(45.,0.,-20.));
#96 = DIRECTION('',(1.,0.,0.));
#97 = DIRECTION('',(0.,0.,-1.));
#98 = DEFINITIONAL_REPRESENTATION('',(#99),#103);
#99 = CIRCLE('',#100,1.5);
#100 = AXIS2_PLACEMENT_2D('',#101,#102);
#101 = CARTESIAN_POINT('',(0.,0.));
#102 = DIRECTION('',(1.,0.));
#103 = ( GEOMETRIC_REPRESENTATION_CONTEXT(2) 
PARAMETRIC_REPRESENTATION_CONTEXT() REPRESENTATION_CONTEXT('2D SPACE',''
  ) );
#104 = ORIENTED_EDGE('',*,*,#55,.T.);
#105 = ADVANCED_FACE('',(#106),#43,.T.);
#106 = FACE_BOUND('',#107,.T.);
#107 = EDGE_LOOP('',(#108));
#108 = ORIENTED_EDGE('',*,*,#21,.T.);
#109 = ADVANCED_FACE('',(#110),#93,.F.);
#110 = FACE_BOUND('',#111,.T.);
#111 = EDGE_LOOP('',(#112));
#112 = ORIENTED_EDGE('',*,*,#78,.F.);
#113 = MANIFOLD_SOLID_BREP('',#114);
#114 = CLOSED_SHELL('',(#115,#203,#207));
#115 = ADVANCED_FACE('',(#116),#129,.T.);
#116 = FACE_BOUND('',#117,.T.);
#117 = EDGE_LOOP('',(#118,#152,#175,#202));
#118 = ORIENTED_EDGE('',*,*,#119,.F.);
#119 = EDGE_CURVE('',#120,#120,#122,.T.);
#120 = VERTEX_POINT('',#121);
#121 = CARTESIAN_POINT('',(-15.,-3.673940397442E-16,-21.5));
#122 = SURFACE_CURVE('',#123,(#128,#140),.PCURVE_S1.);
#123 = CIRCLE('',#124,1.5);
#124 = AXIS2_PLACEMENT_3D('',#125,#126,#127);
#125 = CARTESIAN_POINT('',(-15.,0.,-20.));
#126 = DIRECTION('',(1.,-0.,0.));
#127 = DIRECTION('',(0.,0.,-1.));
#128 = PCURVE('',#129,#134);
#129 = CYLINDRICAL_SURFACE('',#130,1.5);
#130 = AXIS2_PLACEMENT_3D('',#131,#132,#133);
#131 = CARTESIAN_POINT('',(-25.,0.,-20.));
#132 = DIRECTION('',(1.,0.,0.));
#133 = DIRECTION('',(0.,0.,-1.));
#134 = DEFINITIONAL_REPRESENTATION('',(#135),#139);
#135 = LINE('',#136,#137);
#136 = CARTESIAN_POINT('',(0.,10.));
#137 = VECTOR('',#138,1.);
#138 = DIRECTION('',(1.,0.));
#139 = ( GEOMETRIC_REPRESENTATION_CONTEXT(2) 
PARAMETRIC_REPRESENTATION_CONTEXT() REPRESENTATION_CONTEXT('2D SPACE',''
  ) );
#140 = PCURVE('',#141,#146);
#141 = PLANE('',#142);
#142 = AXIS2_PLACEMENT_3D('',#143,#144,#145);
#143 = CARTESIAN_POINT('',(-15.,0.,-20.));
#144 = DIRECTION('',(1.,0.,0.));
#145 = DIRECTION('',(0.,0.,-1.));
#146 = DEFINITIONAL_REPRESENTATION('',(#147),#151);
#147 = CIRCLE('',#148,1.5);
#148 = AXIS2_PLACEMENT_2D('',#149,#150);
#149 = CARTESIAN_POINT('',(0.,0.));
#150 = DIRECTION('',(1.,0.));
#151 = ( GEOMETRIC_REPRESENTATION_CONTEXT(2) 
PARAMETRIC_REPRESENTATION_CONTEXT() REPRESENTATION_CONTEXT('2D SPACE',''
  ) );
#152 = ORIENTED_EDGE('',*,*,#153,.F.);
#153 = EDGE_CURVE('',#154,#120,#156,.T.);
#154 = VERTEX_POINT('',#155);
#155 = CARTESIAN_POINT('',(-25.,-3.673940397442E-16,-21.5));
#156 = SEAM_CURVE('',#157,(#161,#168),.PCURVE_S1.);
#157 = LINE('',#158,#159);
#158 = CARTESIAN_POINT('',(-25.,-3.673940397442E-16,-21.5));
#159 = VECTOR('',#160,1.);
#160 = DIRECTION('',(1.,0.,0.));
#161 = PCURVE('',#129,#162);
#162 = DEFINITIONAL_REPRESENTATION('',(#163),#167);
#163 = LINE('',#164,#165);
#164 = CARTESIAN_POINT('',(6.28318530718,-0.));
#165 = VECTOR('',#166,1.);
#166 = DIRECTION('',(0.,1.));
#167 = ( GEOMETRIC_REPRESENTATION_CONTEXT(2) 
PARAMETRIC_REPRESENTATION_CONTEXT() REPRESENTATION_CONTEXT('2D SPACE',''
  ) );
#168 = PCURVE('',#129,#169);
#169 = DEFINITIONAL_REPRESENTATION('',(#170),#174);
#170 = LINE('',#171,#172);
#171 = CARTESIAN_POINT('',(0.,-0.));
#172 = VECTOR('',#173,1.);
#173 = DIRECTION('',(0.,1.));
#174 = ( GEOMETRIC_REPRESENTATION_CONTEXT(2) 
PARAMETRIC_REPRESENTATION_CONTEXT() REPRESENTATION_CONTEXT('2D SPACE',''
  ) );
#175 = ORIENTED_EDGE('',*,*,#176,.T.);
#176 = EDGE_CURVE('',#154,#154,#177,.T.);
#177 = SURFACE_CURVE('',#178,(#183,#190),.PCURVE_S1.);
#178 = CIRCLE('',#179,1.5);
#179 = AXIS2_PLACEMENT_3D('',#180,#181,#182);
#180 = CARTESIAN_POINT('',(-25.,0.,-20.));
#181 = DIRECTION('',(1.,-0.,0.));
#182 = DIRECTION('',(0.,0.,-1.));
#183 = PCURVE('',#129,#184);
#184 = DEFINITIONAL_REPRESENTATION('',(#185),#189);
#185 = LINE('',#186,#187);
#186 = CARTESIAN_POINT('',(0.,0.));
#187 = VECTOR('',#188,1.);
#188 = DIRECTION('',(1.,0.));
#189 = ( GEOMETRIC_REPRESENTATION_CONTEXT(2) 
PARAMETRIC_REPRESENTATION_CONTEXT() REPRESENTATION_CONTEXT('2D SPACE',''
  ) );
#190 = PCURVE('',#191,#196);
#191 = PLANE('',#192);
#192 = AXIS2_PLACEMENT_3D('',#193,#194,#195);
#193 = CARTESIAN_POINT('',(-25.,0.,-20.));
#194 = DIRECTION('',(1.,0.,0.));
#195 = DIRECTION('',(0.,0.,-1.));
#196 = DEFINITIONAL_REPRESENTATION('',(#197),#201);
#197 = CIRCLE('',#198,1.5);
#198 = AXIS2_PLACEMENT_2D('',#199,#200);
#199 = CARTESIAN_POINT('',(0.,0.));
#200 = DIRECTION('',(1.,0.));
#201 = ( GEOMETRIC_REPRESENTATION_CONTEXT(2) 
PARAMETRIC_REPRESENTATION_CONTEXT() REPRESENTATION_CONTEXT('2D SPACE',''
  ) );
#202 = ORIENTED_EDGE('',*,*,#153,.T.);
#203 = ADVANCED_FACE('',(#204),#141,.T.);
#204 = FACE_BOUND('',#205,.T.);
#205 = EDGE_LOOP('',(#206));
#206 = ORIENTED_EDGE('',*,*,#119,.T.);
#207 = ADVANCED_FACE('',(#208),#191,.F.);
#208 = FACE_BOUND('',#209,.T.);
#209 = EDGE_LOOP('',(#210));
#210 = ORIENTED_EDGE('',*,*,#176,.F.);
#211 = MANIFOLD_SOLID_BREP('',#212);
#212 = CLOSED_SHELL('',(#213,#301,#305));
#213 = ADVANCED_FACE('',(#214),#227,.T.);
#214 = FACE_BOUND('',#215,.T.);
#215 = EDGE_LOOP('',(#216,#250,#273,#300));
#216 = ORIENTED_EDGE('',*,*,#217,.F.);
#217 = EDGE_CURVE('',#218,#218,#220,.T.);
#218 = VERTEX_POINT('',#219);
#219 = CARTESIAN_POINT('',(55.,-3.673940397442E-16,48.5));
#220 = SURFACE_CURVE('',#221,(#226,#238),.PCURVE_S1.);
#221 = CIRCLE('',#222,1.5);
#222 = AXIS2_PLACEMENT_3D('',#223,#224,#225);
#223 = CARTESIAN_POINT('',(55.,0.,50.));
#224 = DIRECTION('',(1.,-0.,0.));
#225 = DIRECTION('',(0.,0.,-1.));
#226 = PCURVE('',#227,#232);
#227 = CYLINDRICAL_SURFACE('',#228,1.5);
#228 = AXIS2_PLACEMENT_3D('',#229,#230,#231);
#229 = CARTESIAN_POINT('',(45.,0.,50.));
#230 = DIRECTION('',(1.,0.,0.));
#231 = DIRECTION('',(0.,0.,-1.));
#232 = DEFINITIONAL_REPRESENTATION('',(#233),#237);
#233 = LINE('',#234,#235);
#234 = CARTESIAN_POINT('',(0.,10.));
#235 = VECTOR('',#236,1.);
#236 = DIRECTION('',(1.,0.));
#237 = ( GEOMETRIC_REPRESENTATION_CONTEXT(2) 
PARAMETRIC_REPRESENTATION_CONTEXT() REPRESENTATION_CONTEXT('2D SPACE',''
  ) );
#238 = PCURVE('',#239,#244);
#239 = PLANE('',#240);
#240 = AXIS2_PLACEMENT_3D('',#241,#242,#243);
#241 = CARTESIAN_POINT('',(55.,0.,50.));
#242 = DIRECTION('',(1.,0.,0.));
#243 = DIRECTION('',(0.,0.,-1.));
#244 = DEFINITIONAL_REPRESENTATION('',(#245),#249);
#245 = CIRCLE('',#246,1.5);
#246 = AXIS2_PLACEMENT_2D('',#247,#248);
#247 = CARTESIAN_POINT('',(0.,0.));
#248 = DIRECTION('',(1.,0.));
#249 = ( GEOMETRIC_REPRESENTATION_CONTEXT(2) 
PARAMETRIC_REPRESENTATION_CONTEXT() REPRESENTATION_CONTEXT('2D SPACE',''
  ) );
#250 = ORIENTED_EDGE('',*,*,#251,.F.);
#251 = EDGE_CURVE('',#252,#218,#254,.T.);
#252 = VERTEX_POINT('',#253);
#253 = CARTESIAN_POINT('',(45.,-3.673940397442E-16,48.5));
#254 = SEAM_CURVE('',#255,(#259,#266),.PCURVE_S1.);
#255 = LINE('',#256,#257);
#256 = CARTESIAN_POINT('',(45.,-3.673940397442E-16,48.5));
#257 = VECTOR('',#258,1.);
#258 = DIRECTION('',(1.,0.,0.));
#259 = PCURVE('',#227,#260);
#260 = DEFINITIONAL_REPRESENTATION('',(#261),#265);
#261 = LINE('',#262,#263);
#262 = CARTESIAN_POINT('',(6.28318530718,-0.));
#263 = VECTOR('',#264,1.);
#264 = DIRECTION('',(0.,1.));
#265 = ( GEOMETRIC_REPRESENTATION_CONTEXT(2) 
PARAMETRIC_REPRESENTATION_CONTEXT() REPRESENTATION_CONTEXT('2D SPACE',''
  ) );
#266 = PCURVE('',#227,#267);
#267 = DEFINITIONAL_REPRESENTATION('',(#268),#272);
#268 = LINE('',#269,#270);
#269 = CARTESIAN_POINT('',(0.,-0.));
#270 = VECTOR('',#271,1.);
#271 = DIRECTION('',(0.,1.));
#272 = ( GEOMETRIC_REPRESENTATION_CONTEXT(2) 
PARAMETRIC_REPRESENTATION_CONTEXT() REPRESENTATION_CONTEXT('2D SPACE',''
  ) );
#273 = ORIENTED_EDGE('',*,*,#274,.T.);
#274 = EDGE_CURVE('',#252,#252,#275,.T.);
#275 = SURFACE_CURVE('',#276,(#281,#288),.PCURVE_S1.);
#276 = CIRCLE('',#277,1.5);
#277 = AXIS2_PLACEMENT_3D('',#278,#279,#280);
#278 = CARTESIAN_POINT('',(45.,0.,50.));
#279 = DIRECTION('',(1.,-0.,0.));
#280 = DIRECTION('',(0.,0.,-1.));
#281 = PCURVE('',#227,#282);
#282 = DEFINITIONAL_REPRESENTATION('',(#283),#287);
#283 = LINE('',#284,#285);
#284 = CARTESIAN_POINT('',(0.,0.));
#285 = VECTOR('',#286,1.);
#286 = DIRECTION('',(1.,0.));
#287 = ( GEOMETRIC_REPRESENTATION_CONTEXT(2) 
PARAMETRIC_REPRESENTATION_CONTEXT() REPRESENTATION_CONTEXT('2D SPACE',''
  ) );
#288 = PCURVE('',#289,#294);
#289 = PLANE('',#290);
#290 = AXIS2_PLACEMENT_3D('',#291,#292,#293);
#291 = CARTESIAN_POINT('',(45.,0.,50.));
#292 = DIRECTION('',(1.,0.,0.));
#293 = DIRECTION('',(0.,0.,-1.));
#294 = DEFINITIONAL_REPRESENTATION('',(#295),#299);
#295 = CIRCLE('',#296,1.5);
#296 = AXIS2_PLACEMENT_2D('',#297,#298);
#297 = CARTESIAN_POINT('',(0.,0.));
#298 = DIRECTION('',(1.,0.));
#299 = ( GEOMETRIC_REPRESENTATION_CONTEXT(2) 
PARAMETRIC_REPRESENTATION_CONTEXT() REPRESENTATION_CONTEXT('2D SPACE',''
  ) );
#300 = ORIENTED_EDGE('',*,*,#251,.T.);
#301 = ADVANCED_FACE('',(#302),#239,.T.);
#302 = FACE_BOUND('',#303,.T.);
#303 = EDGE_LOOP('',(#304));
#304 = ORIENTED_EDGE('',*,*,#217,.T.);
#305 = ADVANCED_FACE('',(#306),#289,.F.);
#306 = FACE_BOUND('',#307,.T.);
#307 = EDGE_LOOP('',(#308));
#308 = ORIENTED_EDGE('',*,*,#274,.F.);
#309 = MANIFOLD_SOLID_BREP('',#310);
#310 = CLOSED_SHELL('',(#311,#399,#403));
#311 = ADVANCED_FACE('',(#312),#325,.T.);
#312 = FACE_BOUND('',#313,.T.);
#313 = EDGE_LOOP('',(#314,#348,#371,#398));
#314 = ORIENTED_EDGE('',*,*,#315,.F.);
#315 = EDGE_CURVE('',#316,#316,#318,.T.);
#316 = VERTEX_POINT('',#317);
#317 = CARTESIAN_POINT('',(-15.,-3.673940397442E-16,48.5));
#318 = SURFACE_CURVE('',#319,(#324,#336),.PCURVE_S1.);
#319 = CIRCLE('',#320,1.5);
#320 = AXIS2_PLACEMENT_3D('',#321,#322,#323);
#321 = CARTESIAN_POINT('',(-15.,0.,50.));
#322 = DIRECTION('',(1.,-0.,0.));
#323 = DIRECTION('',(0.,0.,-1.));
#324 = PCURVE('',#325,#330);
#325 = CYLINDRICAL_SURFACE('',#326,1.5);
#326 = AXIS2_PLACEMENT_3D('',#327,#328,#329);
#327 = CARTESIAN_POINT('',(-25.,0.,50.));
#328 = DIRECTION('',(1.,0.,0.));
#329 = DIRECTION('',(0.,0.,-1.));
#330 = DEFINITIONAL_REPRESENTATION('',(#331),#335);
#331 = LINE('',#332,#333);
#332 = CARTESIAN_POINT('',(0.,10.));
#333 = VECTOR('',#334,1.);
#334 = DIRECTION('',(1.,0.));
#335 = ( GEOMETRIC_REPRESENTATION_CONTEXT(2) 
PARAMETRIC_REPRESENTATION_CONTEXT() REPRESENTATION_CONTEXT('2D SPACE',''
  ) );
#336 = PCURVE('',#337,#342);
#337 = PLANE('',#338);
#338 = AXIS2_PLACEMENT_3D('',#339,#340,#341);
#339 = CARTESIAN_POINT('',(-15.,0.,50.));
#340 = DIRECTION('',(1.,0.,0.));
#341 = DIRECTION('',(0.,0.,-1.));
#342 = DEFINITIONAL_REPRESENTATION('',(#343),#347);
#343 = CIRCLE('',#344,1.5);
#344 = AXIS2_PLACEMENT_2D('',#345,#346);
#345 = CARTESIAN_POINT('',(0.,0.));
#346 = DIRECTION('',(1.,0.));
#347 = ( GEOMETRIC_REPRESENTATION_CONTEXT(2) 
PARAMETRIC_REPRESENTATION_CONTEXT() REPRESENTATION_CONTEXT('2D SPACE',''
  ) );
#348 = ORIENTED_EDGE('',*,*,#349,.F.);
#349 = EDGE_CURVE('',#350,#316,#352,.T.);
#350 = VERTEX_POINT('',#351);
#351 = CARTESIAN_POINT('',(-25.,-3.673940397442E-16,48.5));
#352 = SEAM_CURVE('',#353,(#357,#364),.PCURVE_S1.);
#353 = LINE('',#354,#355);
#354 = CARTESIAN_POINT('',(-25.,-3.673940397442E-16,48.5));
#355 = VECTOR('',#356,1.);
#356 = DIRECTION('',(1.,0.,0.));
#357 = PCURVE('',#325,#358);
#358 = DEFINITIONAL_REPRESENTATION('',(#359),#363);
#359 = LINE('',#360,#361);
#360 = CARTESIAN_POINT('',(6.28318530718,-0.));
#361 = VECTOR('',#362,1.);
#362 = DIRECTION('',(0.,1.));
#363 = ( GEOMETRIC_REPRESENTATION_CONTEXT(2) 
PARAMETRIC_REPRESENTATION_CONTEXT() REPRESENTATION_CONTEXT('2D SPACE',''
  ) );
#364 = PCURVE('',#325,#365);
#365 = DEFINITIONAL_REPRESENTATION('',(#366),#370);
#366 = LINE('',#367,#368);
#367 = CARTESIAN_POINT('',(0.,-0.));
#368 = VECTOR('',#369,1.);
#369 = DIRECTION('',(0.,1.));
#370 = ( GEOMETRIC_REPRESENTATION_CONTEXT(2) 
PARAMETRIC_REPRESENTATION_CONTEXT() REPRESENTATION_CONTEXT('2D SPACE',''
  ) );
#371 = ORIENTED_EDGE('',*,*,#372,.T.);
#372 = EDGE_CURVE('',#350,#350,#373,.T.);
#373 = SURFACE_CURVE('',#374,(#379,#386),.PCURVE_S1.);
#374 = CIRCLE('',#375,1.5);
#375 = AXIS2_PLACEMENT_3D('',#376,#377,#378);
#376 = CARTESIAN_POINT('',(-25.,0.,50.));
#377 = DIRECTION('',(1.,-0.,0.));
#378 = DIRECTION('',(0.,0.,-1.));
#379 = PCURVE('',#325,#380);
#380 = DEFINITIONAL_REPRESENTATION('',(#381),#385);
#381 = LINE('',#382,#383);
#382 = CARTESIAN_POINT('',(0.,0.));
#383 = VECTOR('',#384,1.);
#384 = DIRECTION('',(1.,0.));
#385 = ( GEOMETRIC_REPRESENTATION_CONTEXT(2) 
PARAMETRIC_REPRESENTATION_CONTEXT() REPRESENTATION_CONTEXT('2D SPACE',''
  ) );
#386 = PCURVE('',#387,#392);
#387 = PLANE('',#388);
#388 = AXIS2_PLACEMENT_3D('',#389,#390,#391);
#389 = CARTESIAN_POINT('',(-25.,0.,50.));
#390 = DIRECTION('',(1.,0.,0.));
#391 = DIRECTION('',(0.,0.,-1.));
#392 = DEFINITIONAL_REPRESENTATION('',(#393),#397);
#393 = CIRCLE('',#394,1.5);
#394 = AXIS2_PLACEMENT_2D('',#395,#396);
#395 = CARTESIAN_POINT('',(0.,0.));
#396 = DIRECTION('',(1.,0.));
#397 = ( GEOMETRIC_REPRESENTATION_CONTEXT(2) 
PARAMETRIC_REPRESENTATION_CONTEXT() REPRESENTATION_CONTEXT('2D SPACE',''
  ) );
#398 = ORIENTED_EDGE('',*,*,#349,.T.);
#399 = ADVANCED_FACE('',(#400),#337,.T.);
#400 = FACE_BOUND('',#401,.T.);
#401 = EDGE_LOOP('',(#402));
#402 = ORIENTED_EDGE('',*,*,#315,.T.);
#403 = ADVANCED_FACE('',(#404),#387,.F.);
#404 = FACE_BOUND('',#405,.T.);
#405 = EDGE_LOOP('',(#406));
#406 = ORIENTED_EDGE('',*,*,#372,.F.);
#407 = MANIFOLD_SOLID_BREP('',#408);
#408 = CLOSED_SHELL('',(#409,#944,#995,#1489,#1493,#1528,#1558,#1636,
    #1641,#1665));
#409 = ADVANCED_FACE('',(#410),#424,.T.);
#410 = FACE_BOUND('',#411,.T.);
#411 = EDGE_LOOP('',(#412,#442,#469,#470,#499,#692,#922));
#412 = ORIENTED_EDGE('',*,*,#413,.T.);
#413 = EDGE_CURVE('',#414,#416,#418,.T.);
#414 = VERTEX_POINT('',#415);
#415 = CARTESIAN_POINT('',(36.5,-3.673940397442E-16,10.));
#416 = VERTEX_POINT('',#417);
#417 = CARTESIAN_POINT('',(36.5,-3.673940397442E-16,20.));
#418 = SEAM_CURVE('',#419,(#423,#435),.PCURVE_S1.);
#419 = LINE('',#420,#421);
#420 = CARTESIAN_POINT('',(36.5,-3.673940397442E-16,10.));
#421 = VECTOR('',#422,1.);
#422 = DIRECTION('',(0.,0.,1.));
#423 = PCURVE('',#424,#429);
#424 = CYLINDRICAL_SURFACE('',#425,1.5);
#425 = AXIS2_PLACEMENT_3D('',#426,#427,#428);
#426 = CARTESIAN_POINT('',(35.,0.,10.));
#427 = DIRECTION('',(0.,0.,1.));
#428 = DIRECTION('',(1.,0.,0.));
#429 = DEFINITIONAL_REPRESENTATION('',(#430),#434);
#430 = LINE('',#431,#432);
#431 = CARTESIAN_POINT('',(6.28318530718,-0.));
#432 = VECTOR('',#433,1.);
#433 = DIRECTION('',(0.,1.));
#434 = ( GEOMETRIC_REPRESENTATION_CONTEXT(2) 
PARAMETRIC_REPRESENTATION_CONTEXT() REPRESENTATION_CONTEXT('2D SPACE',''
  ) );
#435 = PCURVE('',#424,#436);
#436 = DEFINITIONAL_REPRESENTATION('',(#437),#441);
#437 = LINE('',#438,#439);
#438 = CARTESIAN_POINT('',(0.,-0.));
#439 = VECTOR('',#440,1.);
#440 = DIRECTION('',(0.,1.));
#441 = ( GEOMETRIC_REPRESENTATION_CONTEXT(2) 
PARAMETRIC_REPRESENTATION_CONTEXT() REPRESENTATION_CONTEXT('2D SPACE',''
  ) );
#442 = ORIENTED_EDGE('',*,*,#443,.F.);
#443 = EDGE_CURVE('',#416,#416,#444,.T.);
#444 = SURFACE_CURVE('',#445,(#450,#457),.PCURVE_S1.);
#445 = CIRCLE('',#446,1.5);
#446 = AXIS2_PLACEMENT_3D('',#447,#448,#449);
#447 = CARTESIAN_POINT('',(35.,0.,20.));
#448 = DIRECTION('',(0.,0.,1.));
#449 = DIRECTION('',(1.,0.,0.));
#450 = PCURVE('',#424,#451);
#451 = DEFINITIONAL_REPRESENTATION('',(#452),#456);
#452 = LINE('',#453,#454);
#453 = CARTESIAN_POINT('',(0.,10.));
#454 = VECTOR('',#455,1.);
#455 = DIRECTION('',(1.,0.));
#456 = ( GEOMETRIC_REPRESENTATION_CONTEXT(2) 
PARAMETRIC_REPRESENTATION_CONTEXT() REPRESENTATION_CONTEXT('2D SPACE',''
  ) );
#457 = PCURVE('',#458,#463);
#458 = PLANE('',#459);
#459 = AXIS2_PLACEMENT_3D('',#460,#461,#462);
#460 = CARTESIAN_POINT('',(35.,0.,20.));
#461 = DIRECTION('',(0.,0.,1.));
#462 = DIRECTION('',(1.,0.,0.));
#463 = DEFINITIONAL_REPRESENTATION('',(#464),#468);
#464 = CIRCLE('',#465,1.5);
#465 = AXIS2_PLACEMENT_2D('',#466,#467);
#466 = CARTESIAN_POINT('',(0.,0.));
#467 = DIRECTION('',(1.,0.));
#468 = ( GEOMETRIC_REPRESENTATION_CONTEXT(2) 
PARAMETRIC_REPRESENTATION_CONTEXT() REPRESENTATION_CONTEXT('2D SPACE',''
  ) );
#469 = ORIENTED_EDGE('',*,*,#413,.F.);
#470 = ORIENTED_EDGE('',*,*,#471,.T.);
#471 = EDGE_CURVE('',#414,#472,#474,.T.);
#472 = VERTEX_POINT('',#473);
#473 = CARTESIAN_POINT('',(34.541909620991,1.42833931706,10.));
#474 = SURFACE_CURVE('',#475,(#480,#487),.PCURVE_S1.);
#475 = CIRCLE('',#476,1.5);
#476 = AXIS2_PLACEMENT_3D('',#477,#478,#479);
#477 = CARTESIAN_POINT('',(35.,0.,10.));
#478 = DIRECTION('',(0.,0.,1.));
#479 = DIRECTION('',(1.,0.,0.));
#480 = PCURVE('',#424,#481);
#481 = DEFINITIONAL_REPRESENTATION('',(#482),#486);
#482 = LINE('',#483,#484);
#483 = CARTESIAN_POINT('',(0.,0.));
#484 = VECTOR('',#485,1.);
#485 = DIRECTION('',(1.,0.));
#486 = ( GEOMETRIC_REPRESENTATION_CONTEXT(2) 
PARAMETRIC_REPRESENTATION_CONTEXT() REPRESENTATION_CONTEXT('2D SPACE',''
  ) );
#487 = PCURVE('',#488,#493);
#488 = PLANE('',#489);
#489 = AXIS2_PLACEMENT_3D('',#490,#491,#492);
#490 = CARTESIAN_POINT('',(35.,0.,10.));
#491 = DIRECTION('',(0.,0.,1.));
#492 = DIRECTION('',(1.,0.,0.));
#493 = DEFINITIONAL_REPRESENTATION('',(#494),#498);
#494 = CIRCLE('',#495,1.5);
#495 = AXIS2_PLACEMENT_2D('',#496,#497);
#496 = CARTESIAN_POINT('',(0.,0.));
#497 = DIRECTION('',(1.,0.));
#498 = ( GEOMETRIC_REPRESENTATION_CONTEXT(2) 
PARAMETRIC_REPRESENTATION_CONTEXT() REPRESENTATION_CONTEXT('2D SPACE',''
  ) );
#499 = ORIENTED_EDGE('',*,*,#500,.T.);
#500 = EDGE_CURVE('',#472,#501,#503,.T.);
#501 = VERTEX_POINT('',#502);
#502 = CARTESIAN_POINT('',(33.5,0.,17.5));
#503 = SURFACE_CURVE('',#504,(#563,#625),.PCURVE_S1.);
#504 = B_SPLINE_CURVE_WITH_KNOTS('',8,(#505,#506,#507,#508,#509,#510,
    #511,#512,#513,#514,#515,#516,#517,#518,#519,#520,#521,#522,#523,
    #524,#525,#526,#527,#528,#529,#530,#531,#532,#533,#534,#535,#536,
    #537,#538,#539,#540,#541,#542,#543,#544,#545,#546,#547,#548,#549,
    #550,#551,#552,#553,#554,#555,#556,#557,#558,#559,#560,#561,#562),
  .UNSPECIFIED.,.F.,.F.,(9,7,7,7,7,7,7,7,9),(0.,0.334032716425,
    0.618203504351,0.821396347312,0.913043814914,0.956605087456,
    0.978923052637,0.991512821975,1.),.UNSPECIFIED.);
#505 = CARTESIAN_POINT('',(34.541909705656,1.428339344213,9.9999994));
#506 = CARTESIAN_POINT('',(34.496812859593,1.413876095287,
    10.319590684321));
#507 = CARTESIAN_POINT('',(34.451788947546,1.397641452135,
    10.639147455864));
#508 = CARTESIAN_POINT('',(34.406838715071,1.379573848393,
    10.958664250064));
#509 = CARTESIAN_POINT('',(34.361963189362,1.359593770048,
    11.278133556717));
#510 = CARTESIAN_POINT('',(34.317163678603,1.337603290651,
    11.597545804565));
#511 = CARTESIAN_POINT('',(34.272441809346,1.313479544615,11.91688906572
    ));
#512 = CARTESIAN_POINT('',(34.227799601923,1.287062138606,
    12.236148479938));
#513 = CARTESIAN_POINT('',(34.145331155102,1.233524966795,
    12.826820937866));
#514 = CARTESIAN_POINT('',(34.107482957505,1.207099231133,
    13.098256942287));
#515 = CARTESIAN_POINT('',(34.069695955402,1.178721800085,
    13.369606142168));
#516 = CARTESIAN_POINT('',(34.031971977314,1.148230846492,
    13.640855033594));
#517 = CARTESIAN_POINT('',(33.994313935782,1.115415484379,
    13.911982209732));
#518 = CARTESIAN_POINT('',(33.956725863241,1.080010376382,
    14.182958037328));
#519 = CARTESIAN_POINT('',(33.91921323542,1.041658953702,14.453742218707
    ));
#520 = CARTESIAN_POINT('',(33.855020775625,0.969863313133,
    14.917717490134));
#521 = CARTESIAN_POINT('',(33.828303676874,0.938138301612,15.11100565607
    ));
#522 = CARTESIAN_POINT('',(33.801632583779,0.904415308038,
    15.304141037734));
#523 = CARTESIAN_POINT('',(33.77501071892,0.868417224495,15.497099825269
    ));
#524 = CARTESIAN_POINT('',(33.748444043553,0.829828917143,
    15.689838295731));
#525 = CARTESIAN_POINT('',(33.721943972397,0.788125628249,
    15.882272790007));
#526 = CARTESIAN_POINT('',(33.695525377861,0.742695695469,
    16.074294155975));
#527 = CARTESIAN_POINT('',(33.657351429771,0.669295277618,
    16.352014953862));
#528 = CARTESIAN_POINT('',(33.645511164801,0.645436648262,16.43819066184
    ));
#529 = CARTESIAN_POINT('',(33.633696858663,0.620401703589,
    16.524213425864));
#530 = CARTESIAN_POINT('',(33.621911784807,0.59401715046,16.610059198039
    ));
#531 = CARTESIAN_POINT('',(33.61016173443,0.566083538777,16.695685556226
    ));
#532 = CARTESIAN_POINT('',(33.598457212248,0.536285866739,
    16.781015578972));
#533 = CARTESIAN_POINT('',(33.586812065013,0.50424784644,16.865947815518
    ));
#534 = CARTESIAN_POINT('',(33.569758008193,0.452456033587,
    16.990379824039));
#535 = CARTESIAN_POINT('',(33.564285761421,0.435086032991,17.03031495125
    ));
#536 = CARTESIAN_POINT('',(33.558836513965,0.416934927687,
    17.070089975008));
#537 = CARTESIAN_POINT('',(33.55341329312,0.39789695301,17.109682702517)
  );
#538 = CARTESIAN_POINT('',(33.548022798142,0.377821561585,
    17.149044099008));
#539 = CARTESIAN_POINT('',(33.542674915057,0.356525475448,
    17.188101809304));
#540 = CARTESIAN_POINT('',(33.53738391456,0.33375668123,17.226751363591)
  );
#541 = CARTESIAN_POINT('',(33.529506216932,0.296337394472,
    17.284306651109));
#542 = CARTESIAN_POINT('',(33.526862192098,0.283157933279,
    17.303626025771));
#543 = CARTESIAN_POINT('',(33.524243923794,0.269396580047,
    17.322759011349));
#544 = CARTESIAN_POINT('',(33.52165525551,0.254970581189,17.341677466685
    ));
#545 = CARTESIAN_POINT('',(33.519104193598,0.239772483844,
    17.360322809604));
#546 = CARTESIAN_POINT('',(33.516602485132,0.223676532976,
    17.378609087345));
#547 = CARTESIAN_POINT('',(33.514166813029,0.206516198565,
    17.396414217959));
#548 = CARTESIAN_POINT('',(33.510503984082,0.177518282529,
    17.423192197794));
#549 = CARTESIAN_POINT('',(33.509216024866,0.16664586115,17.432608583669
    ));
#550 = CARTESIAN_POINT('',(33.507963536417,0.155288443321,
    17.441766066351));
#551 = CARTESIAN_POINT('',(33.506753457558,0.14337742714,17.450613875643
    ));
#552 = CARTESIAN_POINT('',(33.505597037794,0.130848021428,
    17.459069710071));
#553 = CARTESIAN_POINT('',(33.504510081577,0.117636683264,
    17.467017940877));
#554 = CARTESIAN_POINT('',(33.503513665181,0.103674498873,17.47430436554
    ));
#555 = CARTESIAN_POINT('',(33.502043208972,7.890069492819E-02,
    17.485057564505));
#556 = CARTESIAN_POINT('',(33.501504555827,6.854161238969E-02,
    17.48899673554));
#557 = CARTESIAN_POINT('',(33.501029717228,5.780215843487E-02,
    17.492469304671));
#558 = CARTESIAN_POINT('',(33.500630400624,4.670356305003E-02,
    17.495389621963));
#559 = CARTESIAN_POINT('',(33.50031888293,3.528784590252E-02,
    17.49766787063));
#560 = CARTESIAN_POINT('',(33.500106298126,2.362307345867E-02,
    17.499222596055));
#561 = CARTESIAN_POINT('',(33.5,1.181141535177E-02,17.5));
#562 = CARTESIAN_POINT('',(33.5,9.184850993605E-17,17.5));
#563 = PCURVE('',#424,#564);
#564 = DEFINITIONAL_REPRESENTATION('',(#565),#624);
#565 = B_SPLINE_CURVE_WITH_KNOTS('',8,(#566,#567,#568,#569,#570,#571,
    #572,#573,#574,#575,#576,#577,#578,#579,#580,#581,#582,#583,#584,
    #585,#586,#587,#588,#589,#590,#591,#592,#593,#594,#595,#596,#597,
    #598,#599,#600,#601,#602,#603,#604,#605,#606,#607,#608,#609,#610,
    #611,#612,#613,#614,#615,#616,#617,#618,#619,#620,#621,#622,#623),
  .UNSPECIFIED.,.F.,.F.,(9,7,7,7,7,7,7,7,9),(0.,0.334032716425,
    0.618203504351,0.821396347312,0.913043814914,0.956605087456,
    0.978923052637,0.991512821975,1.),.UNSPECIFIED.);
#566 = CARTESIAN_POINT('',(1.881148001881,-5.999999785899E-07));
#567 = CARTESIAN_POINT('',(1.912720923432,0.319590684321));
#568 = CARTESIAN_POINT('',(1.944608266091,0.639147455864));
#569 = CARTESIAN_POINT('',(1.976869730973,0.958664250064));
#570 = CARTESIAN_POINT('',(2.009573313744,1.278133556717));
#571 = CARTESIAN_POINT('',(2.042795904862,1.597545804565));
#572 = CARTESIAN_POINT('',(2.076627633675,1.91688906572));
#573 = CARTESIAN_POINT('',(2.111179956345,2.236148479938));
#574 = CARTESIAN_POINT('',(2.176728152308,2.826820937866));
#575 = CARTESIAN_POINT('',(2.207484364938,3.098256942287));
#576 = CARTESIAN_POINT('',(2.238956819623,3.369606142168));
#577 = CARTESIAN_POINT('',(2.271251273326,3.640855033594));
#578 = CARTESIAN_POINT('',(2.304503212989,3.911982209732));
#579 = CARTESIAN_POINT('',(2.338881165272,4.182958037328));
#580 = CARTESIAN_POINT('',(2.374610174369,4.453742218707));
#581 = CARTESIAN_POINT('',(2.438815698185,4.917717490134));
#582 = CARTESIAN_POINT('',(2.466454477712,5.11100565607));
#583 = CARTESIAN_POINT('',(2.495094493944,5.304141037734));
#584 = CARTESIAN_POINT('',(2.524911385135,5.497099825269));
#585 = CARTESIAN_POINT('',(2.556103427041,5.689838295731));
#586 = CARTESIAN_POINT('',(2.589004107213,5.882272790007));
#587 = CARTESIAN_POINT('',(2.624000586578,6.074294155975));
#588 = CARTESIAN_POINT('',(2.679156412919,6.352014953862));
#589 = CARTESIAN_POINT('',(2.69690995419,6.43819066184));
#590 = CARTESIAN_POINT('',(2.71535881218,6.524213425864));
#591 = CARTESIAN_POINT('',(2.734614942871,6.610059198039));
#592 = CARTESIAN_POINT('',(2.754806799412,6.695685556226));
#593 = CARTESIAN_POINT('',(2.776138513112,6.781015578972));
#594 = CARTESIAN_POINT('',(2.798853778799,6.865947815518));
#595 = CARTESIAN_POINT('',(2.835205350567,6.990379824039));
#596 = CARTESIAN_POINT('',(2.847345386509,7.03031495125));
#597 = CARTESIAN_POINT('',(2.859977786944,7.070089975008));
#598 = CARTESIAN_POINT('',(2.873171797108,7.109682702517));
#599 = CARTESIAN_POINT('',(2.887026058499,7.149044099008));
#600 = CARTESIAN_POINT('',(2.90166062334,7.188101809304));
#601 = CARTESIAN_POINT('',(2.917240903619,7.226751363591));
#602 = CARTESIAN_POINT('',(2.942733919145,7.284306651109));
#603 = CARTESIAN_POINT('',(2.951694882924,7.303626025771));
#604 = CARTESIAN_POINT('',(2.961032930657,7.322759011349));
#605 = CARTESIAN_POINT('',(2.970802714537,7.341677466685));
#606 = CARTESIAN_POINT('',(2.981075128691,7.360322809604));
#607 = CARTESIAN_POINT('',(2.991933099323,7.378609087345));
#608 = CARTESIAN_POINT('',(3.003486628247,7.396414217959));
#609 = CARTESIAN_POINT('',(3.022972183585,7.423192197794));
#610 = CARTESIAN_POINT('',(3.030270929876,7.432608583669));
#611 = CARTESIAN_POINT('',(3.037888012747,7.441766066351));
#612 = CARTESIAN_POINT('',(3.045868947789,7.450613875643));
#613 = CARTESIAN_POINT('',(3.054256619661,7.459069710071));
#614 = CARTESIAN_POINT('',(3.063093103641,7.467017940877));
#615 = CARTESIAN_POINT('',(3.072424234813,7.47430436554));
#616 = CARTESIAN_POINT('',(3.088969171646,7.485057564505));
#617 = CARTESIAN_POINT('',(3.095884368061,7.48899673554));
#618 = CARTESIAN_POINT('',(3.103050639136,7.492469304671));
#619 = CARTESIAN_POINT('',(3.110453968477,7.495389621963));
#620 = CARTESIAN_POINT('',(3.118066675441,7.49766787063));
#621 = CARTESIAN_POINT('',(3.125843940191,7.499222596055));
#622 = CARTESIAN_POINT('',(3.133718376689,7.5));
#623 = CARTESIAN_POINT('',(3.14159265359,7.5));
#624 = ( GEOMETRIC_REPRESENTATION_CONTEXT(2) 
PARAMETRIC_REPRESENTATION_CONTEXT() REPRESENTATION_CONTEXT('2D SPACE',''
  ) );
#625 = PCURVE('',#626,#631);
#626 = CONICAL_SURFACE('',#627,36.,0.141897054604);
#627 = AXIS2_PLACEMENT_3D('',#628,#629,#630);
#628 = CARTESIAN_POINT('',(0.,0.,0.));
#629 = DIRECTION('',(-0.,-0.,-1.));
#630 = DIRECTION('',(1.,0.,0.));
#631 = DEFINITIONAL_REPRESENTATION('',(#632),#691);
#632 = B_SPLINE_CURVE_WITH_KNOTS('',8,(#633,#634,#635,#636,#637,#638,
    #639,#640,#641,#642,#643,#644,#645,#646,#647,#648,#649,#650,#651,
    #652,#653,#654,#655,#656,#657,#658,#659,#660,#661,#662,#663,#664,
    #665,#666,#667,#668,#669,#670,#671,#672,#673,#674,#675,#676,#677,
    #678,#679,#680,#681,#682,#683,#684,#685,#686,#687,#688,#689,#690),
  .UNSPECIFIED.,.F.,.F.,(9,7,7,7,7,7,7,7,9),(0.,0.334032716425,
    0.618203504351,0.821396347312,0.913043814914,0.956605087456,
    0.978923052637,0.991512821975,1.),.UNSPECIFIED.);
#633 = CARTESIAN_POINT('',(-4.132736394415E-02,-9.9999994));
#634 = CARTESIAN_POINT('',(-4.096325703202E-02,-10.31959068432));
#635 = CARTESIAN_POINT('',(-4.054676875532E-02,-10.63914745586));
#636 = CARTESIAN_POINT('',(-4.007584321037E-02,-10.95866425006));
#637 = CARTESIAN_POINT('',(-3.954788577073E-02,-11.27813355671));
#638 = CARTESIAN_POINT('',(-3.895974714202E-02,-11.59754580456));
#639 = CARTESIAN_POINT('',(-3.830752503986E-02,-11.91688906572));
#640 = CARTESIAN_POINT('',(-3.758618349087E-02,-12.23614847993));
#641 = CARTESIAN_POINT('',(-3.611079519546E-02,-12.82682093786));
#642 = CARTESIAN_POINT('',(-3.53777187763E-02,-13.09825694228));
#643 = CARTESIAN_POINT('',(-3.458555160969E-02,-13.36960614216));
#644 = CARTESIAN_POINT('',(-3.372928756902E-02,-13.64085503359));
#645 = CARTESIAN_POINT('',(-3.28024400656E-02,-13.91198220973));
#646 = CARTESIAN_POINT('',(-3.179687771612E-02,-14.18295803732));
#647 = CARTESIAN_POINT('',(-3.070171810057E-02,-14.4537422187));
#648 = CARTESIAN_POINT('',(-2.864041543435E-02,-14.91771749013));
#649 = CARTESIAN_POINT('',(-2.772653246604E-02,-15.11100565607));
#650 = CARTESIAN_POINT('',(-2.675191496126E-02,-15.30414103773));
#651 = CARTESIAN_POINT('',(-2.570817381226E-02,-15.49709982526));
#652 = CARTESIAN_POINT('',(-2.458576705247E-02,-15.68983829573));
#653 = CARTESIAN_POINT('',(-2.336886470437E-02,-15.88227279));
#654 = CARTESIAN_POINT('',(-2.203901256954E-02,-16.07429415597));
#655 = CARTESIAN_POINT('',(-1.988318474549E-02,-16.35201495386));
#656 = CARTESIAN_POINT('',(-1.918153046191E-02,-16.43819066183));
#657 = CARTESIAN_POINT('',(-1.844433209302E-02,-16.52421342587));
#658 = CARTESIAN_POINT('',(-1.766638746262E-02,-16.61005919802));
#659 = CARTESIAN_POINT('',(-1.684170754286E-02,-16.69568555623));
#660 = CARTESIAN_POINT('',(-1.596084512223E-02,-16.78101557897));
#661 = CARTESIAN_POINT('',(-1.501251485277E-02,-16.86594781551));
#662 = CARTESIAN_POINT('',(-1.347735273761E-02,-16.99037982403));
#663 = CARTESIAN_POINT('',(-1.29621925148E-02,-17.03031495125));
#664 = CARTESIAN_POINT('',(-1.242355705166E-02,-17.070089975));
#665 = CARTESIAN_POINT('',(-1.185828028796E-02,-17.10968270251));
#666 = CARTESIAN_POINT('',(-1.126185649264E-02,-17.149044099));
#667 = CARTESIAN_POINT('',(-1.062880027426E-02,-17.1881018093));
#668 = CARTESIAN_POINT('',(-9.951571427098E-03,-17.22675136359));
#669 = CARTESIAN_POINT('',(-8.837909133049E-03,-17.2843066511));
#670 = CARTESIAN_POINT('',(-8.445558204032E-03,-17.30362602577));
#671 = CARTESIAN_POINT('',(-8.035772831518E-03,-17.32275901134));
#672 = CARTESIAN_POINT('',(-7.606079346311E-03,-17.34167746668));
#673 = CARTESIAN_POINT('',(-7.153265393935E-03,-17.3603228096));
#674 = CARTESIAN_POINT('',(-6.673571213084E-03,-17.37860908734));
#675 = CARTESIAN_POINT('',(-6.162019178846E-03,-17.39641421795));
#676 = CARTESIAN_POINT('',(-5.297355480453E-03,-17.42319219779));
#677 = CARTESIAN_POINT('',(-4.973116553199E-03,-17.43260858366));
#678 = CARTESIAN_POINT('',(-4.634369573629E-03,-17.44176606635));
#679 = CARTESIAN_POINT('',(-4.279065313887E-03,-17.45061387564));
#680 = CARTESIAN_POINT('',(-3.905267735995E-03,-17.45906971007));
#681 = CARTESIAN_POINT('',(-3.511078198714E-03,-17.46701794087));
#682 = CARTESIAN_POINT('',(-3.094438845682E-03,-17.47430436554));
#683 = CARTESIAN_POINT('',(-2.355102117986E-03,-17.4850575645));
#684 = CARTESIAN_POINT('',(-2.045932346045E-03,-17.48899673554));
#685 = CARTESIAN_POINT('',(-1.72539271003E-03,-17.49246930467));
#686 = CARTESIAN_POINT('',(-1.394117773666E-03,-17.49538962196));
#687 = CARTESIAN_POINT('',(-1.053363903867E-03,-17.49766787063));
#688 = CARTESIAN_POINT('',(-7.05166385835E-04,-17.49922259605));
#689 = CARTESIAN_POINT('',(-3.525795627393E-04,-17.5));
#690 = CARTESIAN_POINT('',(-2.741746565255E-18,-17.5));
#691 = ( GEOMETRIC_REPRESENTATION_CONTEXT(2) 
PARAMETRIC_REPRESENTATION_CONTEXT() REPRESENTATION_CONTEXT('2D SPACE',''
  ) );
#692 = ORIENTED_EDGE('',*,*,#693,.T.);
#693 = EDGE_CURVE('',#501,#694,#696,.T.);
#694 = VERTEX_POINT('',#695);
#695 = CARTESIAN_POINT('',(34.541909620991,-1.42833931706,10.));
#696 = SURFACE_CURVE('',#697,(#770,#846),.PCURVE_S1.);
#697 = B_SPLINE_CURVE_WITH_KNOTS('',8,(#698,#699,#700,#701,#702,#703,
    #704,#705,#706,#707,#708,#709,#710,#711,#712,#713,#714,#715,#716,
    #717,#718,#719,#720,#721,#722,#723,#724,#725,#726,#727,#728,#729,
    #730,#731,#732,#733,#734,#735,#736,#737,#738,#739,#740,#741,#742,
    #743,#744,#745,#746,#747,#748,#749,#750,#751,#752,#753,#754,#755,
    #756,#757,#758,#759,#760,#761,#762,#763,#764,#765,#766,#767,#768,
    #769),.UNSPECIFIED.,.F.,.F.,(9,7,7,7,7,7,7,7,7,7,9),(0.,
    6.170936024737E-03,1.068465101975E-02,1.913673622047E-02,
    3.055950780944E-02,4.732579243267E-02,9.48264791593E-02,
    0.193890416019,0.416708960213,0.687919918265,1.),.UNSPECIFIED.);
#698 = CARTESIAN_POINT('',(33.5,0.,17.5));
#699 = CARTESIAN_POINT('',(33.5,-8.580503359479E-03,17.5));
#700 = CARTESIAN_POINT('',(33.500056116819,-1.716367286911E-02,
    17.499589593508));
#701 = CARTESIAN_POINT('',(33.500168345488,-2.569388980972E-02,
    17.498768816501));
#702 = CARTESIAN_POINT('',(33.50033476298,-3.412611428946E-02,
    17.497551737395));
#703 = CARTESIAN_POINT('',(33.500552036823,-4.242479294723E-02,
    17.495962735938));
#704 = CARTESIAN_POINT('',(33.500815933724,-5.056276665605E-02,
    17.49403278211));
#705 = CARTESIAN_POINT('',(33.501121828181,-5.852017822647E-02,
    17.491795715018));
#706 = CARTESIAN_POINT('',(33.50171637765,-7.196175379762E-02,
    17.487447716092));
#707 = CARTESIAN_POINT('',(33.501987708318,-7.753888236274E-02,
    17.485463464568));
#708 = CARTESIAN_POINT('',(33.502277562529,-8.301231950705E-02,
    17.483343769654));
#709 = CARTESIAN_POINT('',(33.502584365441,-8.838112330889E-02,
    17.481100152805));
#710 = CARTESIAN_POINT('',(33.502906636755,-9.364567868065E-02,
    17.47874344385));
#711 = CARTESIAN_POINT('',(33.503243019509,-9.880751982618E-02,
    17.476283570354));
#712 = CARTESIAN_POINT('',(33.503592308876,-0.103869152698,
    17.473729346966));
#713 = CARTESIAN_POINT('',(33.504629788013,-0.118130493812,
    17.46614274834));
#714 = CARTESIAN_POINT('',(33.505347383747,-0.127082609446,
    17.460895426179));
#715 = CARTESIAN_POINT('',(33.506099671723,-0.135715216283,
    17.455394560808));
#716 = CARTESIAN_POINT('',(33.506881169944,-0.144050915526,
    17.449680260258));
#717 = CARTESIAN_POINT('',(33.50768742963,-0.152110690197,
    17.443785073108));
#718 = CARTESIAN_POINT('',(33.50851495397,-0.159914677686,
    17.437734583524));
#719 = CARTESIAN_POINT('',(33.509361116886,-0.167482942293,
    17.431548006289));
#720 = CARTESIAN_POINT('',(33.511390356247,-0.184774047374,
    17.416712030389));
#721 = CARTESIAN_POINT('',(33.512586532418,-0.194312265755,
    17.407967018654));
#722 = CARTESIAN_POINT('',(33.513807477562,-0.203496816246,
    17.399041304363));
#723 = CARTESIAN_POINT('',(33.515049211439,-0.212362939017,
    17.38996401165));
#724 = CARTESIAN_POINT('',(33.516308628154,-0.220939410599,
    17.380757866636));
#725 = CARTESIAN_POINT('',(33.517583313001,-0.229251343407,
    17.371440538289));
#726 = CARTESIAN_POINT('',(33.518871454293,-0.23732157525,
    17.362025284568));
#727 = CARTESIAN_POINT('',(33.522080564532,-0.256691478169,
    17.338570423343));
#728 = CARTESIAN_POINT('',(33.524014920861,-0.267731485428,
    17.324433477603));
#729 = CARTESIAN_POINT('',(33.525970423658,-0.27835262275,
    17.310142967923));
#730 = CARTESIAN_POINT('',(33.527943659741,-0.288601058671,
    17.295723873548));
#731 = CARTESIAN_POINT('',(33.529932007157,-0.298513252276,
    17.281195382749));
#732 = CARTESIAN_POINT('',(33.531933443972,-0.308119978724,
    17.266572293241));
#733 = CARTESIAN_POINT('',(33.533946456937,-0.317448306158,
    17.251865681909));
#734 = CARTESIAN_POINT('',(33.541703106866,-0.352226925551,
    17.195201474506));
#735 = CARTESIAN_POINT('',(33.547517357645,-0.375869529639,
    17.152735502865));
#736 = CARTESIAN_POINT('',(33.553387932346,-0.397975508397,
    17.109867025686));
#737 = CARTESIAN_POINT('',(33.559300759274,-0.418808890896,
    17.066699063341));
#738 = CARTESIAN_POINT('',(33.565246099088,-0.438561270767,
    17.023302901041));
#739 = CARTESIAN_POINT('',(33.571217353949,-0.457389606871,
    16.979726834298));
#740 = CARTESIAN_POINT('',(33.577211550921,-0.47540353086,
    16.935992662264));
#741 = CARTESIAN_POINT('',(33.595775151255,-0.528783275515,
    16.800580047796));
#742 = CARTESIAN_POINT('',(33.608406430172,-0.561720287,16.708481610844)
  );
#743 = CARTESIAN_POINT('',(33.621096600096,-0.592351357687,
    16.615995202507));
#744 = CARTESIAN_POINT('',(33.633832234676,-0.621062021706,
    16.523219207661));
#745 = CARTESIAN_POINT('',(33.646603177622,-0.648172876213,
    16.430228004644));
#746 = CARTESIAN_POINT('',(33.659403773329,-0.673888482391,
    16.337063027983));
#747 = CARTESIAN_POINT('',(33.672230812626,-0.698385593131,
    16.24374786122));
#748 = CARTESIAN_POINT('',(33.713993634388,-0.774465645518,
    15.940066173638));
#749 = CARTESIAN_POINT('',(33.743019909531,-0.82162916895,
    15.729213442683));
#750 = CARTESIAN_POINT('',(33.772133177314,-0.864817414337,
    15.517944533631));
#751 = CARTESIAN_POINT('',(33.80131836728,-0.904678372664,
    15.306370081941));
#752 = CARTESIAN_POINT('',(33.830563891914,-0.941770277495,
    15.094575022037));
#753 = CARTESIAN_POINT('',(33.859863745336,-0.976425776388,
    14.882603410377));
#754 = CARTESIAN_POINT('',(33.889214705831,-1.008938078904,
    14.670479073689));
#755 = CARTESIAN_POINT('',(33.954405044925,-1.076753443046,
    14.199819038819));
#756 = CARTESIAN_POINT('',(33.990263871148,-1.111124452336,
    13.941247331681));
#757 = CARTESIAN_POINT('',(34.02618809328,-1.143030593222,
    13.682525506284));
#758 = CARTESIAN_POINT('',(34.062173812937,-1.172736972452,
    13.423682260383));
#759 = CARTESIAN_POINT('',(34.098218081535,-1.200445444399,
    13.164739271943));
#760 = CARTESIAN_POINT('',(34.134318703334,-1.226317988738,
    12.905712684928));
#761 = CARTESIAN_POINT('',(34.170474189419,-1.250482789289,
    12.646613484882));
#762 = CARTESIAN_POINT('',(34.248349541822,-1.299011855087,
    12.089229372605));
#763 = CARTESIAN_POINT('',(34.290086299537,-1.322857063666,
    11.790927386991));
#764 = CARTESIAN_POINT('',(34.331892018261,-1.344744710146,
    11.492556415974));
#765 = CARTESIAN_POINT('',(34.37376514998,-1.364797972186,
    11.194127842324));
#766 = CARTESIAN_POINT('',(34.415704424146,-1.383113236555,
    10.895650982021));
#767 = CARTESIAN_POINT('',(34.45770879952,-1.399768304745,
    10.597133452502));
#768 = CARTESIAN_POINT('',(34.499777438747,-1.414826881207,
    10.298581373428));
#769 = CARTESIAN_POINT('',(34.541909705656,-1.428339344213,9.9999994));
#770 = PCURVE('',#424,#771);
#771 = DEFINITIONAL_REPRESENTATION('',(#772),#845);
#772 = B_SPLINE_CURVE_WITH_KNOTS('',8,(#773,#774,#775,#776,#777,#778,
    #779,#780,#781,#782,#783,#784,#785,#786,#787,#788,#789,#790,#791,
    #792,#793,#794,#795,#796,#797,#798,#799,#800,#801,#802,#803,#804,
    #805,#806,#807,#808,#809,#810,#811,#812,#813,#814,#815,#816,#817,
    #818,#819,#820,#821,#822,#823,#824,#825,#826,#827,#828,#829,#830,
    #831,#832,#833,#834,#835,#836,#837,#838,#839,#840,#841,#842,#843,
    #844),.UNSPECIFIED.,.F.,.F.,(9,7,7,7,7,7,7,7,7,7,9),(0.,
    6.170936024737E-03,1.068465101975E-02,1.913673622047E-02,
    3.055950780944E-02,4.732579243267E-02,9.48264791593E-02,
    0.193890416019,0.416708960213,0.687919918265,1.),.UNSPECIFIED.);
#773 = CARTESIAN_POINT('',(3.14159265359,7.5));
#774 = CARTESIAN_POINT('',(3.147312989163,7.5));
#775 = CARTESIAN_POINT('',(3.153035098351,7.499589593508));
#776 = CARTESIAN_POINT('',(3.158722199691,7.498768816501));
#777 = CARTESIAN_POINT('',(3.164344542348,7.497551737395));
#778 = CARTESIAN_POINT('',(3.169878666579,7.495962735938));
#779 = CARTESIAN_POINT('',(3.175306664194,7.49403278211));
#780 = CARTESIAN_POINT('',(3.180615439008,7.491795715018));
#781 = CARTESIAN_POINT('',(3.189585251168,7.487447716092));
#782 = CARTESIAN_POINT('',(3.193307698094,7.485463464568));
#783 = CARTESIAN_POINT('',(3.196961713858,7.483343769654));
#784 = CARTESIAN_POINT('',(3.200546694912,7.481100152805));
#785 = CARTESIAN_POINT('',(3.204062912465,7.47874344385));
#786 = CARTESIAN_POINT('',(3.207511396567,7.476283570354));
#787 = CARTESIAN_POINT('',(3.210893820182,7.473729346966));
#788 = CARTESIAN_POINT('',(3.220426505785,7.46614274834));
#789 = CARTESIAN_POINT('',(3.226413565432,7.460895426179));
#790 = CARTESIAN_POINT('',(3.232190220056,7.455394560808));
#791 = CARTESIAN_POINT('',(3.237771491461,7.449680260257));
#792 = CARTESIAN_POINT('',(3.243171297152,7.443785073108));
#793 = CARTESIAN_POINT('',(3.24840298207,7.437734583524));
#794 = CARTESIAN_POINT('',(3.253479850336,7.431548006289));
#795 = CARTESIAN_POINT('',(3.265086364356,7.416712030389));
#796 = CARTESIAN_POINT('',(3.271494784031,7.407967018654));
#797 = CARTESIAN_POINT('',(3.277671406976,7.399041304363));
#798 = CARTESIAN_POINT('',(3.283639565573,7.38996401165));
#799 = CARTESIAN_POINT('',(3.289418289591,7.380757866636));
#800 = CARTESIAN_POINT('',(3.295024180807,7.371440538289));
#801 = CARTESIAN_POINT('',(3.300472346277,7.362025284568));
#802 = CARTESIAN_POINT('',(3.313561638383,7.338570423343));
#803 = CARTESIAN_POINT('',(3.321033444325,7.324433477603));
#804 = CARTESIAN_POINT('',(3.328232777899,7.310142967923));
#805 = CARTESIAN_POINT('',(3.335190118705,7.295723873548));
#806 = CARTESIAN_POINT('',(3.341929505101,7.281195382749));
#807 = CARTESIAN_POINT('',(3.34847121893,7.266572293241));
#808 = CARTESIAN_POINT('',(3.354833106017,7.251865681909));
#809 = CARTESIAN_POINT('',(3.378588507603,7.195201474506));
#810 = CARTESIAN_POINT('',(3.394816060484,7.152735502865));
#811 = CARTESIAN_POINT('',(3.410060091881,7.109867025686));
#812 = CARTESIAN_POINT('',(3.42449371033,7.066699063341));
#813 = CARTESIAN_POINT('',(3.438242265529,7.023302901041));
#814 = CARTESIAN_POINT('',(3.451408472486,6.979726834298));
#815 = CARTESIAN_POINT('',(3.464063998615,6.935992662264));
#816 = CARTESIAN_POINT('',(3.501741014283,6.800580047796));
#817 = CARTESIAN_POINT('',(3.525246678059,6.708481610844));
#818 = CARTESIAN_POINT('',(3.547338310464,6.615995202507));
#819 = CARTESIAN_POINT('',(3.568265121406,6.523219207661));
#820 = CARTESIAN_POINT('',(3.588234455867,6.430228004644));
#821 = CARTESIAN_POINT('',(3.607377770143,6.337063027983));
#822 = CARTESIAN_POINT('',(3.625808991992,6.24374786122));
#823 = CARTESIAN_POINT('',(3.683668237494,5.940066173638));
#824 = CARTESIAN_POINT('',(3.720542631408,5.729213442683));
#825 = CARTESIAN_POINT('',(3.755219188119,5.517944533631));
#826 = CARTESIAN_POINT('',(3.788106840596,5.306370081941));
#827 = CARTESIAN_POINT('',(3.819559598553,5.094575022037));
#828 = CARTESIAN_POINT('',(3.849786346956,4.882603410377));
#829 = CARTESIAN_POINT('',(3.878972791523,4.670479073689));
#830 = CARTESIAN_POINT('',(3.941684491388,4.199819038819));
#831 = CARTESIAN_POINT('',(3.974770889945,3.941247331681));
#832 = CARTESIAN_POINT('',(4.006764905126,3.682525506284));
#833 = CARTESIAN_POINT('',(4.037834434663,3.423682260383));
#834 = CARTESIAN_POINT('',(4.068108371359,3.164739271943));
#835 = CARTESIAN_POINT('',(4.097691508166,2.905712684928));
#836 = CARTESIAN_POINT('',(4.126668355454,2.646613484882));
#837 = CARTESIAN_POINT('',(4.187840755691,2.089229372605));
#838 = CARTESIAN_POINT('',(4.219862859372,1.790927386991));
#839 = CARTESIAN_POINT('',(4.251287066904,1.492556415974));
#840 = CARTESIAN_POINT('',(4.282199976895,1.194127842324));
#841 = CARTESIAN_POINT('',(4.312673094378,0.895650982021));
#842 = CARTESIAN_POINT('',(4.342768116004,0.597133452502));
#843 = CARTESIAN_POINT('',(4.372539926346,0.298581373428));
#844 = CARTESIAN_POINT('',(4.402037305299,-6.E-07));
#845 = ( GEOMETRIC_REPRESENTATION_CONTEXT(2) 
PARAMETRIC_REPRESENTATION_CONTEXT() REPRESENTATION_CONTEXT('2D SPACE',''
  ) );
#846 = PCURVE('',#626,#847);
#847 = DEFINITIONAL_REPRESENTATION('',(#848),#921);
#848 = B_SPLINE_CURVE_WITH_KNOTS('',8,(#849,#850,#851,#852,#853,#854,
    #855,#856,#857,#858,#859,#860,#861,#862,#863,#864,#865,#866,#867,
    #868,#869,#870,#871,#872,#873,#874,#875,#876,#877,#878,#879,#880,
    #881,#882,#883,#884,#885,#886,#887,#888,#889,#890,#891,#892,#893,
    #894,#895,#896,#897,#898,#899,#900,#901,#902,#903,#904,#905,#906,
    #907,#908,#909,#910,#911,#912,#913,#914,#915,#916,#917,#918,#919,
    #920),.UNSPECIFIED.,.F.,.F.,(9,7,7,7,7,7,7,7,7,7,9),(0.,
    6.170936024737E-03,1.068465101975E-02,1.913673622047E-02,
    3.055950780944E-02,4.732579243267E-02,9.48264791593E-02,
    0.193890416019,0.416708960213,0.687919918265,1.),.UNSPECIFIED.);
#849 = CARTESIAN_POINT('',(-6.28318530718,-17.5));
#850 = CARTESIAN_POINT('',(-6.282929172751,-17.5));
#851 = CARTESIAN_POINT('',(-6.282672958712,-17.4995895935));
#852 = CARTESIAN_POINT('',(-6.282418327167,-17.4987688165));
#853 = CARTESIAN_POINT('',(-6.282166624299,-17.49755173739));
#854 = CARTESIAN_POINT('',(-6.281918912902,-17.49596273593));
#855 = CARTESIAN_POINT('',(-6.281676004921,-17.49403278211));
#856 = CARTESIAN_POINT('',(-6.281438493984,-17.49179571501));
#857 = CARTESIAN_POINT('',(-6.281037307154,-17.48744771609));
#858 = CARTESIAN_POINT('',(-6.280870852695,-17.48546346456));
#859 = CARTESIAN_POINT('',(-6.280707497808,-17.48334376965));
#860 = CARTESIAN_POINT('',(-6.280547270759,-17.4811001528));
#861 = CARTESIAN_POINT('',(-6.280390160146,-17.47874344385));
#862 = CARTESIAN_POINT('',(-6.280236120214,-17.47628357035));
#863 = CARTESIAN_POINT('',(-6.280085076171,-17.47372934696));
#864 = CARTESIAN_POINT('',(-6.27965951981,-17.46614274834));
#865 = CARTESIAN_POINT('',(-6.279392409781,-17.46089542617));
#866 = CARTESIAN_POINT('',(-6.279134853348,-17.4553945608));
#867 = CARTESIAN_POINT('',(-6.278886175547,-17.44968026025));
#868 = CARTESIAN_POINT('',(-6.278645749559,-17.4437850731));
#869 = CARTESIAN_POINT('',(-6.278412973755,-17.43773458352));
#870 = CARTESIAN_POINT('',(-6.278187248737,-17.43154800628));
#871 = CARTESIAN_POINT('',(-6.277671583808,-17.41671203038));
#872 = CARTESIAN_POINT('',(-6.277387166348,-17.40796701865));
#873 = CARTESIAN_POINT('',(-6.277113330434,-17.39904130436));
#874 = CARTESIAN_POINT('',(-6.276849023085,-17.38996401165));
#875 = CARTESIAN_POINT('',(-6.276593384304,-17.38075786663));
#876 = CARTESIAN_POINT('',(-6.276345663566,-17.37144053828));
#877 = CARTESIAN_POINT('',(-6.27610517838,-17.36202528456));
#878 = CARTESIAN_POINT('',(-6.275528051381,-17.33857042334));
#879 = CARTESIAN_POINT('',(-6.275199183563,-17.3244334776));
#880 = CARTESIAN_POINT('',(-6.274882860004,-17.31014296792));
#881 = CARTESIAN_POINT('',(-6.274577700584,-17.29572387354));
#882 = CARTESIAN_POINT('',(-6.274282615224,-17.28119538274));
#883 = CARTESIAN_POINT('',(-6.273996683719,-17.26657229324));
#884 = CARTESIAN_POINT('',(-6.273719096745,-17.2518656819));
#885 = CARTESIAN_POINT('',(-6.272684392588,-17.1952014745));
#886 = CARTESIAN_POINT('',(-6.271981466714,-17.15273550286));
#887 = CARTESIAN_POINT('',(-6.27132464787,-17.10986702568));
#888 = CARTESIAN_POINT('',(-6.270706034917,-17.06669906334));
#889 = CARTESIAN_POINT('',(-6.270119892426,-17.02330290104));
#890 = CARTESIAN_POINT('',(-6.269561521768,-16.97972683429));
#891 = CARTESIAN_POINT('',(-6.269027640228,-16.93599266226));
#892 = CARTESIAN_POINT('',(-6.267446613903,-16.80058004779));
#893 = CARTESIAN_POINT('',(-6.266472534939,-16.70848161084));
#894 = CARTESIAN_POINT('',(-6.265567942805,-16.6159952025));
#895 = CARTESIAN_POINT('',(-6.26472127032,-16.52321920766));
#896 = CARTESIAN_POINT('',(-6.26392289835,-16.43022800464));
#897 = CARTESIAN_POINT('',(-6.263166681175,-16.33706302798));
#898 = CARTESIAN_POINT('',(-6.262447309696,-16.24374786122));
#899 = CARTESIAN_POINT('',(-6.260216332401,-15.94006617363));
#900 = CARTESIAN_POINT('',(-6.258838446212,-15.72921344268));
#901 = CARTESIAN_POINT('',(-6.257581139203,-15.51794453362));
#902 = CARTESIAN_POINT('',(-6.256424838414,-15.30637008195));
#903 = CARTESIAN_POINT('',(-6.255352684968,-15.09457502202));
#904 = CARTESIAN_POINT('',(-6.254354589376,-14.88260341038));
#905 = CARTESIAN_POINT('',(-6.253421659627,-14.67047907368));
#906 = CARTESIAN_POINT('',(-6.251483028884,-14.19981903881));
#907 = CARTESIAN_POINT('',(-6.250505658471,-13.94124733168));
#908 = CARTESIAN_POINT('',(-6.249603218834,-13.68252550628));
#909 = CARTESIAN_POINT('',(-6.248767602783,-13.42368226038));
#910 = CARTESIAN_POINT('',(-6.24799261105,-13.16473927194));
#911 = CARTESIAN_POINT('',(-6.247273248873,-12.90571268492));
#912 = CARTESIAN_POINT('',(-6.246605541886,-12.64661348488));
#913 = CARTESIAN_POINT('',(-6.245273412828,-12.0892293726));
#914 = CARTESIAN_POINT('',(-6.244624658498,-11.79092738699));
#915 = CARTESIAN_POINT('',(-6.244034837283,-11.49255641597));
#916 = CARTESIAN_POINT('',(-6.243500072682,-11.19412784232));
#917 = CARTESIAN_POINT('',(-6.243017297442,-10.89565098202));
#918 = CARTESIAN_POINT('',(-6.24258400528,-10.5971334525));
#919 = CARTESIAN_POINT('',(-6.242198114466,-10.29858137342));
#920 = CARTESIAN_POINT('',(-6.241857943235,-9.9999994));
#921 = ( GEOMETRIC_REPRESENTATION_CONTEXT(2) 
PARAMETRIC_REPRESENTATION_CONTEXT() REPRESENTATION_CONTEXT('2D SPACE',''
  ) );
#922 = ORIENTED_EDGE('',*,*,#923,.T.);
#923 = EDGE_CURVE('',#694,#414,#924,.T.);
#924 = SURFACE_CURVE('',#925,(#930,#937),.PCURVE_S1.);
#925 = CIRCLE('',#926,1.5);
#926 = AXIS2_PLACEMENT_3D('',#927,#928,#929);
#927 = CARTESIAN_POINT('',(35.,0.,10.));
#928 = DIRECTION('',(0.,0.,1.));
#929 = DIRECTION('',(1.,0.,0.));
#930 = PCURVE('',#424,#931);
#931 = DEFINITIONAL_REPRESENTATION('',(#932),#936);
#932 = LINE('',#933,#934);
#933 = CARTESIAN_POINT('',(0.,0.));
#934 = VECTOR('',#935,1.);
#935 = DIRECTION('',(1.,0.));
#936 = ( GEOMETRIC_REPRESENTATION_CONTEXT(2) 
PARAMETRIC_REPRESENTATION_CONTEXT() REPRESENTATION_CONTEXT('2D SPACE',''
  ) );
#937 = PCURVE('',#488,#938);
#938 = DEFINITIONAL_REPRESENTATION('',(#939),#943);
#939 = CIRCLE('',#940,1.5);
#940 = AXIS2_PLACEMENT_2D('',#941,#942);
#941 = CARTESIAN_POINT('',(0.,0.));
#942 = DIRECTION('',(1.,0.));
#943 = ( GEOMETRIC_REPRESENTATION_CONTEXT(2) 
PARAMETRIC_REPRESENTATION_CONTEXT() REPRESENTATION_CONTEXT('2D SPACE',''
  ) );
#944 = ADVANCED_FACE('',(#945),#488,.F.);
#945 = FACE_BOUND('',#946,.F.);
#946 = EDGE_LOOP('',(#947,#948,#949,#973));
#947 = ORIENTED_EDGE('',*,*,#923,.T.);
#948 = ORIENTED_EDGE('',*,*,#471,.T.);
#949 = ORIENTED_EDGE('',*,*,#950,.F.);
#950 = EDGE_CURVE('',#951,#472,#953,.T.);
#951 = VERTEX_POINT('',#952);
#952 = CARTESIAN_POINT('',(34.571428571429,0.,10.));
#953 = SURFACE_CURVE('',#954,(#959,#966),.PCURVE_S1.);
#954 = CIRCLE('',#955,34.571428571429);
#955 = AXIS2_PLACEMENT_3D('',#956,#957,#958);
#956 = CARTESIAN_POINT('',(0.,0.,10.));
#957 = DIRECTION('',(0.,0.,1.));
#958 = DIRECTION('',(1.,0.,-0.));
#959 = PCURVE('',#488,#960);
#960 = DEFINITIONAL_REPRESENTATION('',(#961),#965);
#961 = CIRCLE('',#962,34.571428571429);
#962 = AXIS2_PLACEMENT_2D('',#963,#964);
#963 = CARTESIAN_POINT('',(-35.,0.));
#964 = DIRECTION('',(1.,0.));
#965 = ( GEOMETRIC_REPRESENTATION_CONTEXT(2) 
PARAMETRIC_REPRESENTATION_CONTEXT() REPRESENTATION_CONTEXT('2D SPACE',''
  ) );
#966 = PCURVE('',#626,#967);
#967 = DEFINITIONAL_REPRESENTATION('',(#968),#972);
#968 = LINE('',#969,#970);
#969 = CARTESIAN_POINT('',(-0.,-10.));
#970 = VECTOR('',#971,1.);
#971 = DIRECTION('',(-1.,-0.));
#972 = ( GEOMETRIC_REPRESENTATION_CONTEXT(2) 
PARAMETRIC_REPRESENTATION_CONTEXT() REPRESENTATION_CONTEXT('2D SPACE',''
  ) );
#973 = ORIENTED_EDGE('',*,*,#974,.F.);
#974 = EDGE_CURVE('',#694,#951,#975,.T.);
#975 = SURFACE_CURVE('',#976,(#981,#988),.PCURVE_S1.);
#976 = CIRCLE('',#977,34.571428571429);
#977 = AXIS2_PLACEMENT_3D('',#978,#979,#980);
#978 = CARTESIAN_POINT('',(0.,0.,10.));
#979 = DIRECTION('',(0.,0.,1.));
#980 = DIRECTION('',(1.,0.,-0.));
#981 = PCURVE('',#488,#982);
#982 = DEFINITIONAL_REPRESENTATION('',(#983),#987);
#983 = CIRCLE('',#984,34.571428571429);
#984 = AXIS2_PLACEMENT_2D('',#985,#986);
#985 = CARTESIAN_POINT('',(-35.,0.));
#986 = DIRECTION('',(1.,0.));
#987 = ( GEOMETRIC_REPRESENTATION_CONTEXT(2) 
PARAMETRIC_REPRESENTATION_CONTEXT() REPRESENTATION_CONTEXT('2D SPACE',''
  ) );
#988 = PCURVE('',#626,#989);
#989 = DEFINITIONAL_REPRESENTATION('',(#990),#994);
#990 = LINE('',#991,#992);
#991 = CARTESIAN_POINT('',(-0.,-10.));
#992 = VECTOR('',#993,1.);
#993 = DIRECTION('',(-1.,-0.));
#994 = ( GEOMETRIC_REPRESENTATION_CONTEXT(2) 
PARAMETRIC_REPRESENTATION_CONTEXT() REPRESENTATION_CONTEXT('2D SPACE',''
  ) );
#995 = ADVANCED_FACE('',(#996,#1098),#626,.T.);
#996 = FACE_BOUND('',#997,.T.);
#997 = EDGE_LOOP('',(#998,#1018,#1045,#1046,#1047,#1048,#1068,#1095,
    #1096,#1097));
#998 = ORIENTED_EDGE('',*,*,#999,.F.);
#999 = EDGE_CURVE('',#1000,#951,#1002,.T.);
#1000 = VERTEX_POINT('',#1001);
#1001 = CARTESIAN_POINT('',(36.,0.,0.));
#1002 = SEAM_CURVE('',#1003,(#1006,#1012),.PCURVE_S1.);
#1003 = B_SPLINE_CURVE_WITH_KNOTS('',1,(#1004,#1005),.UNSPECIFIED.,.F.,
  .F.,(2,2),(0.,1.),.PIECEWISE_BEZIER_KNOTS.);
#1004 = CARTESIAN_POINT('',(36.,0.,0.));
#1005 = CARTESIAN_POINT('',(31.,0.,35.));
#1006 = PCURVE('',#626,#1007);
#1007 = DEFINITIONAL_REPRESENTATION('',(#1008),#1011);
#1008 = B_SPLINE_CURVE_WITH_KNOTS('',1,(#1009,#1010),.UNSPECIFIED.,.F.,
  .F.,(2,2),(0.,1.),.PIECEWISE_BEZIER_KNOTS.);
#1009 = CARTESIAN_POINT('',(0.,0.));
#1010 = CARTESIAN_POINT('',(0.,-35.));
#1011 = ( GEOMETRIC_REPRESENTATION_CONTEXT(2) 
PARAMETRIC_REPRESENTATION_CONTEXT() REPRESENTATION_CONTEXT('2D SPACE',''
  ) );
#1012 = PCURVE('',#626,#1013);
#1013 = DEFINITIONAL_REPRESENTATION('',(#1014),#1017);
#1014 = B_SPLINE_CURVE_WITH_KNOTS('',1,(#1015,#1016),.UNSPECIFIED.,.F.,
  .F.,(2,2),(0.,1.),.PIECEWISE_BEZIER_KNOTS.);
#1015 = CARTESIAN_POINT('',(-6.28318530718,0.));
#1016 = CARTESIAN_POINT('',(-6.28318530718,-35.));
#1017 = ( GEOMETRIC_REPRESENTATION_CONTEXT(2) 
PARAMETRIC_REPRESENTATION_CONTEXT() REPRESENTATION_CONTEXT('2D SPACE',''
  ) );
#1018 = ORIENTED_EDGE('',*,*,#1019,.T.);
#1019 = EDGE_CURVE('',#1000,#1000,#1020,.T.);
#1020 = SURFACE_CURVE('',#1021,(#1026,#1033),.PCURVE_S1.);
#1021 = CIRCLE('',#1022,36.);
#1022 = AXIS2_PLACEMENT_3D('',#1023,#1024,#1025);
#1023 = CARTESIAN_POINT('',(0.,0.,0.));
#1024 = DIRECTION('',(0.,0.,1.));
#1025 = DIRECTION('',(1.,0.,0.));
#1026 = PCURVE('',#626,#1027);
#1027 = DEFINITIONAL_REPRESENTATION('',(#1028),#1032);
#1028 = LINE('',#1029,#1030);
#1029 = CARTESIAN_POINT('',(-0.,-0.));
#1030 = VECTOR('',#1031,1.);
#1031 = DIRECTION('',(-1.,-0.));
#1032 = ( GEOMETRIC_REPRESENTATION_CONTEXT(2) 
PARAMETRIC_REPRESENTATION_CONTEXT() REPRESENTATION_CONTEXT('2D SPACE',''
  ) );
#1033 = PCURVE('',#1034,#1039);
#1034 = PLANE('',#1035);
#1035 = AXIS2_PLACEMENT_3D('',#1036,#1037,#1038);
#1036 = CARTESIAN_POINT('',(0.,0.,0.));
#1037 = DIRECTION('',(0.,0.,1.));
#1038 = DIRECTION('',(1.,0.,0.));
#1039 = DEFINITIONAL_REPRESENTATION('',(#1040),#1044);
#1040 = CIRCLE('',#1041,36.);
#1041 = AXIS2_PLACEMENT_2D('',#1042,#1043);
#1042 = CARTESIAN_POINT('',(0.,0.));
#1043 = DIRECTION('',(1.,0.));
#1044 = ( GEOMETRIC_REPRESENTATION_CONTEXT(2) 
PARAMETRIC_REPRESENTATION_CONTEXT() REPRESENTATION_CONTEXT('2D SPACE',''
  ) );
#1045 = ORIENTED_EDGE('',*,*,#999,.T.);
#1046 = ORIENTED_EDGE('',*,*,#974,.F.);
#1047 = ORIENTED_EDGE('',*,*,#693,.F.);
#1048 = ORIENTED_EDGE('',*,*,#1049,.T.);
#1049 = EDGE_CURVE('',#501,#1050,#1052,.T.);
#1050 = VERTEX_POINT('',#1051);
#1051 = CARTESIAN_POINT('',(31.,0.,35.));
#1052 = SEAM_CURVE('',#1053,(#1056,#1062),.PCURVE_S1.);
#1053 = B_SPLINE_CURVE_WITH_KNOTS('',1,(#1054,#1055),.UNSPECIFIED.,.F.,
  .F.,(2,2),(0.,1.),.PIECEWISE_BEZIER_KNOTS.);
#1054 = CARTESIAN_POINT('',(36.,0.,0.));
#1055 = CARTESIAN_POINT('',(31.,0.,35.));
#1056 = PCURVE('',#626,#1057);
#1057 = DEFINITIONAL_REPRESENTATION('',(#1058),#1061);
#1058 = B_SPLINE_CURVE_WITH_KNOTS('',1,(#1059,#1060),.UNSPECIFIED.,.F.,
  .F.,(2,2),(0.,1.),.PIECEWISE_BEZIER_KNOTS.);
#1059 = CARTESIAN_POINT('',(0.,0.));
#1060 = CARTESIAN_POINT('',(0.,-35.));
#1061 = ( GEOMETRIC_REPRESENTATION_CONTEXT(2) 
PARAMETRIC_REPRESENTATION_CONTEXT() REPRESENTATION_CONTEXT('2D SPACE',''
  ) );
#1062 = PCURVE('',#626,#1063);
#1063 = DEFINITIONAL_REPRESENTATION('',(#1064),#1067);
#1064 = B_SPLINE_CURVE_WITH_KNOTS('',1,(#1065,#1066),.UNSPECIFIED.,.F.,
  .F.,(2,2),(0.,1.),.PIECEWISE_BEZIER_KNOTS.);
#1065 = CARTESIAN_POINT('',(-6.28318530718,0.));
#1066 = CARTESIAN_POINT('',(-6.28318530718,-35.));
#1067 = ( GEOMETRIC_REPRESENTATION_CONTEXT(2) 
PARAMETRIC_REPRESENTATION_CONTEXT() REPRESENTATION_CONTEXT('2D SPACE',''
  ) );
#1068 = ORIENTED_EDGE('',*,*,#1069,.F.);
#1069 = EDGE_CURVE('',#1050,#1050,#1070,.T.);
#1070 = SURFACE_CURVE('',#1071,(#1076,#1083),.PCURVE_S1.);
#1071 = CIRCLE('',#1072,31.);
#1072 = AXIS2_PLACEMENT_3D('',#1073,#1074,#1075);
#1073 = CARTESIAN_POINT('',(0.,0.,35.));
#1074 = DIRECTION('',(0.,0.,1.));
#1075 = DIRECTION('',(1.,0.,0.));
#1076 = PCURVE('',#626,#1077);
#1077 = DEFINITIONAL_REPRESENTATION('',(#1078),#1082);
#1078 = LINE('',#1079,#1080);
#1079 = CARTESIAN_POINT('',(-0.,-35.));
#1080 = VECTOR('',#1081,1.);
#1081 = DIRECTION('',(-1.,-0.));
#1082 = ( GEOMETRIC_REPRESENTATION_CONTEXT(2) 
PARAMETRIC_REPRESENTATION_CONTEXT() REPRESENTATION_CONTEXT('2D SPACE',''
  ) );
#1083 = PCURVE('',#1084,#1089);
#1084 = PLANE('',#1085);
#1085 = AXIS2_PLACEMENT_3D('',#1086,#1087,#1088);
#1086 = CARTESIAN_POINT('',(0.,0.,35.));
#1087 = DIRECTION('',(0.,0.,1.));
#1088 = DIRECTION('',(1.,0.,0.));
#1089 = DEFINITIONAL_REPRESENTATION('',(#1090),#1094);
#1090 = CIRCLE('',#1091,31.);
#1091 = AXIS2_PLACEMENT_2D('',#1092,#1093);
#1092 = CARTESIAN_POINT('',(0.,0.));
#1093 = DIRECTION('',(1.,0.));
#1094 = ( GEOMETRIC_REPRESENTATION_CONTEXT(2) 
PARAMETRIC_REPRESENTATION_CONTEXT() REPRESENTATION_CONTEXT('2D SPACE',''
  ) );
#1095 = ORIENTED_EDGE('',*,*,#1049,.F.);
#1096 = ORIENTED_EDGE('',*,*,#500,.F.);
#1097 = ORIENTED_EDGE('',*,*,#950,.F.);
#1098 = FACE_BOUND('',#1099,.T.);
#1099 = EDGE_LOOP('',(#1100,#1274,#1462));
#1100 = ORIENTED_EDGE('',*,*,#1101,.F.);
#1101 = EDGE_CURVE('',#1102,#1104,#1106,.T.);
#1102 = VERTEX_POINT('',#1103);
#1103 = CARTESIAN_POINT('',(-33.5,-3.673940397442E-16,17.5));
#1104 = VERTEX_POINT('',#1105);
#1105 = CARTESIAN_POINT('',(-34.54190962099,1.42833931706,10.));
#1106 = SURFACE_CURVE('',#1107,(#1159,#1214),.PCURVE_S1.);
#1107 = B_SPLINE_CURVE_WITH_KNOTS('',8,(#1108,#1109,#1110,#1111,#1112,
    #1113,#1114,#1115,#1116,#1117,#1118,#1119,#1120,#1121,#1122,#1123,
    #1124,#1125,#1126,#1127,#1128,#1129,#1130,#1131,#1132,#1133,#1134,
    #1135,#1136,#1137,#1138,#1139,#1140,#1141,#1142,#1143,#1144,#1145,
    #1146,#1147,#1148,#1149,#1150,#1151,#1152,#1153,#1154,#1155,#1156,
    #1157,#1158),.UNSPECIFIED.,.F.,.F.,(9,7,7,7,7,7,7,9),(0.,
    1.173801202487E-02,3.22841555542E-02,5.003504399259E-02,
    0.101070497467,0.2072799824,0.449884492959,1.),.UNSPECIFIED.);
#1108 = CARTESIAN_POINT('',(-33.5,-3.673940397442E-16,17.5));
#1109 = CARTESIAN_POINT('',(-33.5,1.665145231123E-02,17.5));
#1110 = CARTESIAN_POINT('',(-33.50021141978,3.302258585706E-02,
    17.498453796668));
#1111 = CARTESIAN_POINT('',(-33.50062120458,4.890071767575E-02,
    17.495456860625));
#1112 = CARTESIAN_POINT('',(-33.50120299857,6.416377028487E-02,
    17.491202008649));
#1113 = CARTESIAN_POINT('',(-33.50192611969,7.874844519194E-02,
    17.485913720531));
#1114 = CARTESIAN_POINT('',(-33.50276133301,9.262790607519E-02,
    17.479805884231));
#1115 = CARTESIAN_POINT('',(-33.50368342299,0.105798971634,
    17.473062969346));
#1116 = CARTESIAN_POINT('',(-33.5063984504,0.14012346407,17.453209690439
    ));
#1117 = CARTESIAN_POINT('',(-33.50833467922,0.159963250404,
    17.439052051164));
#1118 = CARTESIAN_POINT('',(-33.51040471478,0.178317819076,
    17.423917073576));
#1119 = CARTESIAN_POINT('',(-33.51256920176,0.195388784249,
    17.408092734529));
#1120 = CARTESIAN_POINT('',(-33.5147969738,0.211392500792,
    17.391807036253));
#1121 = CARTESIAN_POINT('',(-33.51707262298,0.226476393047,
    17.375172701174));
#1122 = CARTESIAN_POINT('',(-33.51938894369,0.240799624727,
    17.358242474799));
#1123 = CARTESIAN_POINT('',(-33.52378897958,0.266355962023,
    17.32608491329));
#1124 = CARTESIAN_POINT('',(-33.52585408021,0.277701858528,
    17.310993254602));
#1125 = CARTESIAN_POINT('',(-33.52794030829,0.288613488868,
    17.295748315776));
#1126 = CARTESIAN_POINT('',(-33.53004423487,0.299139342105,
    17.280375192104));
#1127 = CARTESIAN_POINT('',(-33.53216323331,0.309317557124,
    17.264893106644));
#1128 = CARTESIAN_POINT('',(-33.53429528215,0.319180225906,
    17.249316854044));
#1129 = CARTESIAN_POINT('',(-33.53643887156,0.328755496742,
    17.233657486729));
#1130 = CARTESIAN_POINT('',(-33.544786371,0.36484028699,17.172681957051)
  );
#1131 = CARTESIAN_POINT('',(-33.55106304352,0.389421516036,
    17.126843048442));
#1132 = CARTESIAN_POINT('',(-33.55739718511,0.412380595128,
    17.080594770611));
#1133 = CARTESIAN_POINT('',(-33.5637743429,0.433998969591,
    17.034042940103));
#1134 = CARTESIAN_POINT('',(-33.57018453827,0.454480440362,16.9872605955
    ));
#1135 = CARTESIAN_POINT('',(-33.57662103065,0.473992013966,
    16.940297078757));
#1136 = CARTESIAN_POINT('',(-33.58308086842,0.492648857572,
    16.893174038193));
#1137 = CARTESIAN_POINT('',(-33.60305393521,0.547825357476,
    16.74750866774));
#1138 = CARTESIAN_POINT('',(-33.61662968342,0.581812892894,
    16.648546562952));
#1139 = CARTESIAN_POINT('',(-33.63026528145,0.613395526579,
    16.54919597333));
#1140 = CARTESIAN_POINT('',(-33.64394725599,0.642975169875,
    16.449555639595));
#1141 = CARTESIAN_POINT('',(-33.65766540797,0.670886473446,
    16.349700258691));
#1142 = CARTESIAN_POINT('',(-33.67141407978,0.697342155529,
    16.24967128414));
#1143 = CARTESIAN_POINT('',(-33.68519006977,0.722526078103,
    16.149492252622));
#1144 = CARTESIAN_POINT('',(-33.73052185954,0.80152232541,15.81999979813
    ));
#1145 = CARTESIAN_POINT('',(-33.76217538407,0.850540670307,
    15.590181687746));
#1146 = CARTESIAN_POINT('',(-33.7939227501,0.895295995313,
    15.359938394534));
#1147 = CARTESIAN_POINT('',(-33.82574840701,0.936479439531,
    15.129384105773));
#1148 = CARTESIAN_POINT('',(-33.85764033883,0.974692751531,
    14.898606899913));
#1149 = CARTESIAN_POINT('',(-33.8895924256,1.010288579797,
    14.667651673592));
#1150 = CARTESIAN_POINT('',(-33.92160142209,1.043580022174,
    14.436542453246));
#1151 = CARTESIAN_POINT('',(-34.02637943341,1.14558309981,13.68087265955
    ));
#1152 = CARTESIAN_POINT('',(-34.09936440267,1.205686992094,
    13.155819223512));
#1153 = CARTESIAN_POINT('',(-34.17259072353,1.257804388268,
    12.630352516582));
#1154 = CARTESIAN_POINT('',(-34.24604160407,1.302999859452,
    12.10459610809));
#1155 = CARTESIAN_POINT('',(-34.31970398677,1.3421981547,11.578645555754
    ));
#1156 = CARTESIAN_POINT('',(-34.39357109992,1.375896323572,
    11.052550283729));
#1157 = CARTESIAN_POINT('',(-34.46763944136,1.404519733439,
    10.526336189058));
#1158 = CARTESIAN_POINT('',(-34.54190970565,1.428339344213,9.9999994));
#1159 = PCURVE('',#626,#1160);
#1160 = DEFINITIONAL_REPRESENTATION('',(#1161),#1213);
#1161 = B_SPLINE_CURVE_WITH_KNOTS('',8,(#1162,#1163,#1164,#1165,#1166,
    #1167,#1168,#1169,#1170,#1171,#1172,#1173,#1174,#1175,#1176,#1177,
    #1178,#1179,#1180,#1181,#1182,#1183,#1184,#1185,#1186,#1187,#1188,
    #1189,#1190,#1191,#1192,#1193,#1194,#1195,#1196,#1197,#1198,#1199,
    #1200,#1201,#1202,#1203,#1204,#1205,#1206,#1207,#1208,#1209,#1210,
    #1211,#1212),.UNSPECIFIED.,.F.,.F.,(9,7,7,7,7,7,7,9),(0.,
    1.173801202487E-02,3.22841555542E-02,5.003504399259E-02,
    0.101070497467,0.2072799824,0.449884492959,1.),.UNSPECIFIED.);
#1162 = CARTESIAN_POINT('',(-3.14159265359,-17.5));
#1163 = CARTESIAN_POINT('',(-3.141095595312,-17.5));
#1164 = CARTESIAN_POINT('',(-3.140606904626,-17.49845379666));
#1165 = CARTESIAN_POINT('',(-3.140132943702,-17.49545686062));
#1166 = CARTESIAN_POINT('',(-3.139677366997,-17.49120200864));
#1167 = CARTESIAN_POINT('',(-3.139242070333,-17.48591372053));
#1168 = CARTESIAN_POINT('',(-3.138827857103,-17.47980588423));
#1169 = CARTESIAN_POINT('',(-3.138434821598,-17.47306296934));
#1170 = CARTESIAN_POINT('',(-3.137410651547,-17.45320969043));
#1171 = CARTESIAN_POINT('',(-3.136818793331,-17.43905205116));
#1172 = CARTESIAN_POINT('',(-3.136271361136,-17.42391707357));
#1173 = CARTESIAN_POINT('',(-3.135762328856,-17.40809273453));
#1174 = CARTESIAN_POINT('',(-3.135285230195,-17.39180703625));
#1175 = CARTESIAN_POINT('',(-3.13483565767,-17.37517270117));
#1176 = CARTESIAN_POINT('',(-3.134408856512,-17.35824247479));
#1177 = CARTESIAN_POINT('',(-3.133647516199,-17.32608491329));
#1178 = CARTESIAN_POINT('',(-3.133309590908,-17.3109932546));
#1179 = CARTESIAN_POINT('',(-3.132984672906,-17.29574831577));
#1180 = CARTESIAN_POINT('',(-3.132671312614,-17.2803751921));
#1181 = CARTESIAN_POINT('',(-3.132368369644,-17.26489310664));
#1182 = CARTESIAN_POINT('',(-3.132074884346,-17.24931685404));
#1183 = CARTESIAN_POINT('',(-3.13179001503,-17.23365748672));
#1184 = CARTESIAN_POINT('',(-3.13071671448,-17.17268195705));
#1185 = CARTESIAN_POINT('',(-3.129986102204,-17.12684304844));
#1186 = CARTESIAN_POINT('',(-3.129304176576,-17.08059477061));
#1187 = CARTESIAN_POINT('',(-3.12866251404,-17.0340429401));
#1188 = CARTESIAN_POINT('',(-3.128055012745,-16.9872605955));
#1189 = CARTESIAN_POINT('',(-3.127476672476,-16.94029707875));
#1190 = CARTESIAN_POINT('',(-3.126924044015,-16.89317403819));
#1191 = CARTESIAN_POINT('',(-3.125290791547,-16.74750866774));
#1192 = CARTESIAN_POINT('',(-3.124286373989,-16.64854656295));
#1193 = CARTESIAN_POINT('',(-3.123354462383,-16.54919597332));
#1194 = CARTESIAN_POINT('',(-3.122482993851,-16.44955563959));
#1195 = CARTESIAN_POINT('',(-3.121661924016,-16.34970025868));
#1196 = CARTESIAN_POINT('',(-3.120884858996,-16.24967128414));
#1197 = CARTESIAN_POINT('',(-3.120146273432,-16.14949225262));
#1198 = CARTESIAN_POINT('',(-3.11783303844,-15.81999979813));
#1199 = CARTESIAN_POINT('',(-3.116403529181,-15.59018168774));
#1200 = CARTESIAN_POINT('',(-3.115103410206,-15.35993839453));
#1201 = CARTESIAN_POINT('',(-3.113911780846,-15.12938410576));
#1202 = CARTESIAN_POINT('',(-3.112810448871,-14.89860689991));
#1203 = CARTESIAN_POINT('',(-3.111788699339,-14.66765167359));
#1204 = CARTESIAN_POINT('',(-3.110837020938,-14.43654245324));
#1205 = CARTESIAN_POINT('',(-3.107933430014,-13.68087265955));
#1206 = CARTESIAN_POINT('',(-3.106243159498,-13.15581922351));
#1207 = CARTESIAN_POINT('',(-3.104795404061,-12.63035251658));
#1208 = CARTESIAN_POINT('',(-3.103557096197,-12.10459610808));
#1209 = CARTESIAN_POINT('',(-3.102499468838,-11.57864555575));
#1210 = CARTESIAN_POINT('',(-3.101606646988,-11.05255028372));
#1211 = CARTESIAN_POINT('',(-3.100864939487,-10.52633618905));
#1212 = CARTESIAN_POINT('',(-3.100265289646,-9.9999994));
#1213 = ( GEOMETRIC_REPRESENTATION_CONTEXT(2) 
PARAMETRIC_REPRESENTATION_CONTEXT() REPRESENTATION_CONTEXT('2D SPACE',''
  ) );
#1214 = PCURVE('',#1215,#1220);
#1215 = CYLINDRICAL_SURFACE('',#1216,1.5);
#1216 = AXIS2_PLACEMENT_3D('',#1217,#1218,#1219);
#1217 = CARTESIAN_POINT('',(-35.,0.,10.));
#1218 = DIRECTION('',(0.,0.,1.));
#1219 = DIRECTION('',(1.,0.,0.));
#1220 = DEFINITIONAL_REPRESENTATION('',(#1221),#1273);
#1221 = B_SPLINE_CURVE_WITH_KNOTS('',8,(#1222,#1223,#1224,#1225,#1226,
    #1227,#1228,#1229,#1230,#1231,#1232,#1233,#1234,#1235,#1236,#1237,
    #1238,#1239,#1240,#1241,#1242,#1243,#1244,#1245,#1246,#1247,#1248,
    #1249,#1250,#1251,#1252,#1253,#1254,#1255,#1256,#1257,#1258,#1259,
    #1260,#1261,#1262,#1263,#1264,#1265,#1266,#1267,#1268,#1269,#1270,
    #1271,#1272),.UNSPECIFIED.,.F.,.F.,(9,7,7,7,7,7,7,9),(0.,
    1.173801202487E-02,3.22841555542E-02,5.003504399259E-02,
    0.101070497467,0.2072799824,0.449884492959,1.),.UNSPECIFIED.);
#1222 = CARTESIAN_POINT('',(0.,7.5));
#1223 = CARTESIAN_POINT('',(1.110096820749E-02,7.5));
#1224 = CARTESIAN_POINT('',(2.201503610502E-02,7.498453796668));
#1225 = CARTESIAN_POINT('',(3.260258160967E-02,7.495456860625));
#1226 = CARTESIAN_POINT('',(4.278389185772E-02,7.491202008649));
#1227 = CARTESIAN_POINT('',(5.25177914881E-02,7.485913720531));
#1228 = CARTESIAN_POINT('',(6.17867694697E-02,7.479805884231));
#1229 = CARTESIAN_POINT('',(7.058860447268E-02,7.473062969346));
#1230 = CARTESIAN_POINT('',(9.354307297742E-02,7.453209690439));
#1231 = CARTESIAN_POINT('',(0.10683020134,7.439052051164));
#1232 = CARTESIAN_POINT('',(0.119142026311,7.423917073576));
#1233 = CARTESIAN_POINT('',(0.130611746487,7.408092734529));
#1234 = CARTESIAN_POINT('',(0.141382354145,7.391807036253));
#1235 = CARTESIAN_POINT('',(0.151551071798,7.375172701174));
#1236 = CARTESIAN_POINT('',(0.161223455834,7.358242474799));
#1237 = CARTESIAN_POINT('',(0.178511688077,7.32608491329));
#1238 = CARTESIAN_POINT('',(0.186199541066,7.310993254602));
#1239 = CARTESIAN_POINT('',(0.193605250175,7.295748315776));
#1240 = CARTESIAN_POINT('',(0.200760813429,7.280375192104));
#1241 = CARTESIAN_POINT('',(0.207691365011,7.264893106644));
#1242 = CARTESIAN_POINT('',(0.214418044149,7.249316854044));
#1243 = CARTESIAN_POINT('',(0.220959399308,7.233657486729));
#1244 = CARTESIAN_POINT('',(0.245651213824,7.172681957051));
#1245 = CARTESIAN_POINT('',(0.262560174326,7.126843048442));
#1246 = CARTESIAN_POINT('',(0.278433419158,7.080594770611));
#1247 = CARTESIAN_POINT('',(0.293455312257,7.034042940103));
#1248 = CARTESIAN_POINT('',(0.307759062702,6.9872605955));
#1249 = CARTESIAN_POINT('',(0.32145386116,6.940297078757));
#1250 = CARTESIAN_POINT('',(0.334614904391,6.893174038193));
#1251 = CARTESIAN_POINT('',(0.373735058553,6.74750866774));
#1252 = CARTESIAN_POINT('',(0.398121054479,6.648546562952));
#1253 = CARTESIAN_POINT('',(0.421041095117,6.54919597333));
#1254 = CARTESIAN_POINT('',(0.442754531803,6.449555639595));
#1255 = CARTESIAN_POINT('',(0.463477456829,6.349700258691));
#1256 = CARTESIAN_POINT('',(0.48334630032,6.24967128414));
#1257 = CARTESIAN_POINT('',(0.502479357513,6.149492252622));
#1258 = CARTESIAN_POINT('',(0.563198668929,5.81999979813));
#1259 = CARTESIAN_POINT('',(0.60204544533,5.590181687746));
#1260 = CARTESIAN_POINT('',(0.638572563412,5.359938394534));
#1261 = CARTESIAN_POINT('',(0.673215002894,5.129384105773));
#1262 = CARTESIAN_POINT('',(0.706353801564,4.898606899913));
#1263 = CARTESIAN_POINT('',(0.738210100473,4.667651673592));
#1264 = CARTESIAN_POINT('',(0.768982255454,4.436542453246));
#1265 = CARTESIAN_POINT('',(0.86646857245,3.68087265955));
#1266 = CARTESIAN_POINT('',(0.929283388019,3.155819223512));
#1267 = CARTESIAN_POINT('',(0.988969009696,2.630352516582));
#1268 = CARTESIAN_POINT('',(1.046212708289,2.10459610809));
#1269 = CARTESIAN_POINT('',(1.101634431343,1.578645555754));
#1270 = CARTESIAN_POINT('',(1.155599085613,1.052550283729));
#1271 = CARTESIAN_POINT('',(1.208447019215,0.526336189058));
#1272 = CARTESIAN_POINT('',(1.260444651709,-6.E-07));
#1273 = ( GEOMETRIC_REPRESENTATION_CONTEXT(2) 
PARAMETRIC_REPRESENTATION_CONTEXT() REPRESENTATION_CONTEXT('2D SPACE',''
  ) );
#1274 = ORIENTED_EDGE('',*,*,#1275,.F.);
#1275 = EDGE_CURVE('',#1276,#1102,#1278,.T.);
#1276 = VERTEX_POINT('',#1277);
#1277 = CARTESIAN_POINT('',(-34.54190962099,-1.42833931706,10.));
#1278 = SURFACE_CURVE('',#1279,(#1338,#1400),.PCURVE_S1.);
#1279 = B_SPLINE_CURVE_WITH_KNOTS('',8,(#1280,#1281,#1282,#1283,#1284,
    #1285,#1286,#1287,#1288,#1289,#1290,#1291,#1292,#1293,#1294,#1295,
    #1296,#1297,#1298,#1299,#1300,#1301,#1302,#1303,#1304,#1305,#1306,
    #1307,#1308,#1309,#1310,#1311,#1312,#1313,#1314,#1315,#1316,#1317,
    #1318,#1319,#1320,#1321,#1322,#1323,#1324,#1325,#1326,#1327,#1328,
    #1329,#1330,#1331,#1332,#1333,#1334,#1335,#1336,#1337),
  .UNSPECIFIED.,.F.,.F.,(9,7,7,7,7,7,7,7,9),(0.,0.33396284264,
    0.61748976042,0.820619364856,0.911925631748,0.955904522631,
    0.978547969977,0.991472478168,1.),.UNSPECIFIED.);
#1280 = CARTESIAN_POINT('',(-34.54190970565,-1.428339344213,9.9999994));
#1281 = CARTESIAN_POINT('',(-34.49682231094,-1.41387912648,
    10.319523704701));
#1282 = CARTESIAN_POINT('',(-34.45180781955,-1.397648257115,
    10.639013512009));
#1283 = CARTESIAN_POINT('',(-34.40686697668,-1.37958520767,
    10.958463359944));
#1284 = CARTESIAN_POINT('',(-34.36200080889,-1.35961051872,
    11.277865743016));
#1285 = CARTESIAN_POINT('',(-34.31721062344,-1.337626333427,
    11.597211096717));
#1286 = CARTESIAN_POINT('',(-34.27249804564,-1.313509878376,
    11.916487502298));
#1287 = CARTESIAN_POINT('',(-34.22786509413,-1.287100891719,
    12.235680111842));
#1288 = CARTESIAN_POINT('',(-34.14549167032,-1.233632359845,
    12.825670657944));
#1289 = CARTESIAN_POINT('',(-34.10772899491,-1.207273929832,
    13.0964919199));
#1290 = CARTESIAN_POINT('',(-34.07002723143,-1.178973195895,
    13.367226818734));
#1291 = CARTESIAN_POINT('',(-34.03238819766,-1.148569495844,
    13.637861930203));
#1292 = CARTESIAN_POINT('',(-33.99481478129,-1.115853696012,
    13.908376029922));
#1293 = CARTESIAN_POINT('',(-33.95731097659,-1.080562733346,
    14.1787397646));
#1294 = CARTESIAN_POINT('',(-33.91988220318,-1.042343345383,
    14.448913249337));
#1295 = CARTESIAN_POINT('',(-33.85578037253,-0.970757503372,
    14.912222846894));
#1296 = CARTESIAN_POINT('',(-33.82907040522,-0.93909130571,
    15.105454933043));
#1297 = CARTESIAN_POINT('',(-33.80240632741,-0.905433662283,
    15.298534974939));
#1298 = CARTESIAN_POINT('',(-33.77579134849,-0.869509443706,
    15.491439261207));
#1299 = CARTESIAN_POINT('',(-33.7492313933,-0.831005050138,
    15.684124335163));
#1300 = CARTESIAN_POINT('',(-33.72273774975,-0.789400562823,
    15.876507465464));
#1301 = CARTESIAN_POINT('',(-33.69632514706,-0.744088081871,
    16.068480549603));
#1302 = CARTESIAN_POINT('',(-33.6581991753,-0.670987490158,16.3458454229
    ));
#1303 = CARTESIAN_POINT('',(-33.64640123339,-0.647289593939,
    16.431710829753));
#1304 = CARTESIAN_POINT('',(-33.63462884878,-0.622432395745,
    16.517425960984));
#1305 = CARTESIAN_POINT('',(-33.62288523836,-0.596247238884,
    16.602967185612));
#1306 = CARTESIAN_POINT('',(-33.61117605229,-0.568538832016,
    16.688293113622));
#1307 = CARTESIAN_POINT('',(-33.59951138622,-0.539002637647,
    16.773329816524));
#1308 = CARTESIAN_POINT('',(-33.58790459859,-0.507271787562,
    16.857979419632));
#1309 = CARTESIAN_POINT('',(-33.5708299106,-0.455832526055,
    16.982557597372));
#1310 = CARTESIAN_POINT('',(-33.5653012249,-0.438426580293,
    17.022903268961));
#1311 = CARTESIAN_POINT('',(-33.5597953687,-0.42024004404,
    17.063090241928));
#1312 = CARTESIAN_POINT('',(-33.55431535312,-0.401167551971,
    17.103096441999));
#1313 = CARTESIAN_POINT('',(-33.54886777866,-0.381059484204,
    17.142873556515));
#1314 = CARTESIAN_POINT('',(-33.54346237563,-0.359733476153,
    17.182350369114));
#1315 = CARTESIAN_POINT('',(-33.53811318117,-0.336938756978,
    17.22142411856));
#1316 = CARTESIAN_POINT('',(-33.53013234545,-0.299431040901,
    17.27973172808));
#1317 = CARTESIAN_POINT('',(-33.5274444351,-0.286177121439,
    17.299371386613));
#1318 = CARTESIAN_POINT('',(-33.5247821596,-0.272338086526,
    17.31882560932));
#1319 = CARTESIAN_POINT('',(-33.5221493313,-0.25783083008,
    17.338066482569));
#1320 = CARTESIAN_POINT('',(-33.5195539087,-0.242547074138,
    17.357035774066));
#1321 = CARTESIAN_POINT('',(-33.51700757151,-0.22635990534,
    17.375648023453));
#1322 = CARTESIAN_POINT('',(-33.51452691824,-0.209101002732,
    17.393781765811));
#1323 = CARTESIAN_POINT('',(-33.51077712196,-0.179806533917,
    17.421195272076));
#1324 = CARTESIAN_POINT('',(-33.50944847142,-0.168735265617,
    17.430909075337));
#1325 = CARTESIAN_POINT('',(-33.50815599117,-0.157162338363,
    17.440358890623));
#1326 = CARTESIAN_POINT('',(-33.50690683018,-0.14501455628,
    17.449492409883));
#1327 = CARTESIAN_POINT('',(-33.50571275634,-0.132222747166,
    17.458223539398));
#1328 = CARTESIAN_POINT('',(-33.50459043451,-0.118718797776,
    17.466430355445));
#1329 = CARTESIAN_POINT('',(-33.50356227431,-0.104427775002,
    17.47394889984));
#1330 = CARTESIAN_POINT('',(-33.50206111172,-7.924430439381E-02,
    17.48492664167));
#1331 = CARTESIAN_POINT('',(-33.50151807228,-6.884669588622E-02,
    17.488897887558));
#1332 = CARTESIAN_POINT('',(-33.50103918901,-5.806481722504E-02,
    17.492400034764));
#1333 = CARTESIAN_POINT('',(-33.50063631664,-4.691976459498E-02,
    17.495346355822));
#1334 = CARTESIAN_POINT('',(-33.50032191587,-3.545369537862E-02,
    17.497645689404));
#1335 = CARTESIAN_POINT('',(-33.5001073118,-2.373520113679E-02,
    17.499215182578));
#1336 = CARTESIAN_POINT('',(-33.5,-1.186757878987E-02,17.5));
#1337 = CARTESIAN_POINT('',(-33.5,-4.440892098501E-16,17.5));
#1338 = PCURVE('',#626,#1339);
#1339 = DEFINITIONAL_REPRESENTATION('',(#1340),#1399);
#1340 = B_SPLINE_CURVE_WITH_KNOTS('',8,(#1341,#1342,#1343,#1344,#1345,
    #1346,#1347,#1348,#1349,#1350,#1351,#1352,#1353,#1354,#1355,#1356,
    #1357,#1358,#1359,#1360,#1361,#1362,#1363,#1364,#1365,#1366,#1367,
    #1368,#1369,#1370,#1371,#1372,#1373,#1374,#1375,#1376,#1377,#1378,
    #1379,#1380,#1381,#1382,#1383,#1384,#1385,#1386,#1387,#1388,#1389,
    #1390,#1391,#1392,#1393,#1394,#1395,#1396,#1397,#1398),
  .UNSPECIFIED.,.F.,.F.,(9,7,7,7,7,7,7,7,9),(0.,0.33396284264,
    0.61748976042,0.820619364856,0.911925631748,0.955904522631,
    0.978547969977,0.991472478168,1.),.UNSPECIFIED.);
#1341 = CARTESIAN_POINT('',(-3.182920017534,-9.9999994));
#1342 = CARTESIAN_POINT('',(-3.182555986931,-10.3195237047));
#1343 = CARTESIAN_POINT('',(-3.182139596923,-10.639013512));
#1344 = CARTESIAN_POINT('',(-3.181668792874,-10.95846335994));
#1345 = CARTESIAN_POINT('',(-3.181140981928,-11.27786574301));
#1346 = CARTESIAN_POINT('',(-3.180553017012,-11.59721109671));
#1347 = CARTESIAN_POINT('',(-3.179900998746,-11.91648750229));
#1348 = CARTESIAN_POINT('',(-3.179179895249,-12.23568011184));
#1349 = CARTESIAN_POINT('',(-3.177706416648,-12.82567065794));
#1350 = CARTESIAN_POINT('',(-3.176975225917,-13.0964919199));
#1351 = CARTESIAN_POINT('',(-3.176185229174,-13.36722681873));
#1352 = CARTESIAN_POINT('',(-3.17533145629,-13.6378619302));
#1353 = CARTESIAN_POINT('',(-3.174407474377,-13.90837602992));
#1354 = CARTESIAN_POINT('',(-3.173405221538,-14.1787397646));
#1355 = CARTESIAN_POINT('',(-3.172313915954,-14.44891324933));
#1356 = CARTESIAN_POINT('',(-3.170258815342,-14.91222284689));
#1357 = CARTESIAN_POINT('',(-3.169346704566,-15.10545493303));
#1358 = CARTESIAN_POINT('',(-3.168374057509,-15.29853497495));
#1359 = CARTESIAN_POINT('',(-3.167332544518,-15.49143926118));
#1360 = CARTESIAN_POINT('',(-3.166212669913,-15.68412433517));
#1361 = CARTESIAN_POINT('',(-3.164998748963,-15.87650746546));
#1362 = CARTESIAN_POINT('',(-3.163672440727,-16.0684805496));
#1363 = CARTESIAN_POINT('',(-3.161525591651,-16.3458454229));
#1364 = CARTESIAN_POINT('',(-3.160828722958,-16.43171082975));
#1365 = CARTESIAN_POINT('',(-3.160096822786,-16.51742596098));
#1366 = CARTESIAN_POINT('',(-3.159324827869,-16.60296718561));
#1367 = CARTESIAN_POINT('',(-3.158506874008,-16.68829311362));
#1368 = CARTESIAN_POINT('',(-3.157633827394,-16.77332981652));
#1369 = CARTESIAN_POINT('',(-3.156694685111,-16.85797941963));
#1370 = CARTESIAN_POINT('',(-3.155170136849,-16.98255759737));
#1371 = CARTESIAN_POINT('',(-3.154653962831,-17.02290326896));
#1372 = CARTESIAN_POINT('',(-3.15411432722,-17.06309024192));
#1373 = CARTESIAN_POINT('',(-3.153548075786,-17.10309644199));
#1374 = CARTESIAN_POINT('',(-3.152950730407,-17.14287355651));
#1375 = CARTESIAN_POINT('',(-3.152316832875,-17.18235036911));
#1376 = CARTESIAN_POINT('',(-3.151638879979,-17.22142411856));
#1377 = CARTESIAN_POINT('',(-3.15052265577,-17.27973172808));
#1378 = CARTESIAN_POINT('',(-3.150128111129,-17.29937138661));
#1379 = CARTESIAN_POINT('',(-3.149716034572,-17.31882560931));
#1380 = CARTESIAN_POINT('',(-3.149283941838,-17.33806648256));
#1381 = CARTESIAN_POINT('',(-3.148828595851,-17.35703577406));
#1382 = CARTESIAN_POINT('',(-3.148346202155,-17.37564802345));
#1383 = CARTESIAN_POINT('',(-3.147831729511,-17.39378176581));
#1384 = CARTESIAN_POINT('',(-3.146958248636,-17.42119527207));
#1385 = CARTESIAN_POINT('',(-3.146628087912,-17.43090907533));
#1386 = CARTESIAN_POINT('',(-3.146282920357,-17.44035889062));
#1387 = CARTESIAN_POINT('',(-3.145920559516,-17.44949240988));
#1388 = CARTESIAN_POINT('',(-3.145538938398,-17.45822353939));
#1389 = CARTESIAN_POINT('',(-3.145136021736,-17.46643035544));
#1390 = CARTESIAN_POINT('',(-3.14470957187,-17.47394889984));
#1391 = CARTESIAN_POINT('',(-3.143958010822,-17.48492664167));
#1392 = CARTESIAN_POINT('',(-3.143647691735,-17.48889788755));
#1393 = CARTESIAN_POINT('',(-3.143325886233,-17.49240003476));
#1394 = CARTESIAN_POINT('',(-3.142993224877,-17.49534635582));
#1395 = CARTESIAN_POINT('',(-3.142650968157,-17.4976456894));
#1396 = CARTESIAN_POINT('',(-3.142301167071,-17.49921518257));
#1397 = CARTESIAN_POINT('',(-3.141946909673,-17.5));
#1398 = CARTESIAN_POINT('',(-3.14159265359,-17.5));
#1399 = ( GEOMETRIC_REPRESENTATION_CONTEXT(2) 
PARAMETRIC_REPRESENTATION_CONTEXT() REPRESENTATION_CONTEXT('2D SPACE',''
  ) );
#1400 = PCURVE('',#1215,#1401);
#1401 = DEFINITIONAL_REPRESENTATION('',(#1402),#1461);
#1402 = B_SPLINE_CURVE_WITH_KNOTS('',8,(#1403,#1404,#1405,#1406,#1407,
    #1408,#1409,#1410,#1411,#1412,#1413,#1414,#1415,#1416,#1417,#1418,
    #1419,#1420,#1421,#1422,#1423,#1424,#1425,#1426,#1427,#1428,#1429,
    #1430,#1431,#1432,#1433,#1434,#1435,#1436,#1437,#1438,#1439,#1440,
    #1441,#1442,#1443,#1444,#1445,#1446,#1447,#1448,#1449,#1450,#1451,
    #1452,#1453,#1454,#1455,#1456,#1457,#1458,#1459,#1460),
  .UNSPECIFIED.,.F.,.F.,(9,7,7,7,7,7,7,7,9),(0.,0.33396284264,
    0.61748976042,0.820619364856,0.911925631748,0.955904522631,
    0.978547969977,0.991472478168,1.),.UNSPECIFIED.);
#1403 = CARTESIAN_POINT('',(5.022740655471,-5.999999785899E-07));
#1404 = CARTESIAN_POINT('',(5.05430696,0.319523704701));
#1405 = CARTESIAN_POINT('',(5.086187553809,0.639013512009));
#1406 = CARTESIAN_POINT('',(5.118442100924,0.958463359944));
#1407 = CARTESIAN_POINT('',(5.151138551955,1.277865743016));
#1408 = CARTESIAN_POINT('',(5.184353745084,1.597211096717));
#1409 = CARTESIAN_POINT('',(5.218177745168,1.916487502298));
#1410 = CARTESIAN_POINT('',(5.252721920974,2.235680111842));
#1411 = CARTESIAN_POINT('',(5.318192066337,2.825670657944));
#1412 = CARTESIAN_POINT('',(5.348875965414,3.0964919199));
#1413 = CARTESIAN_POINT('',(5.380272495713,3.367226818734));
#1414 = CARTESIAN_POINT('',(5.412486658842,3.637861930203));
#1415 = CARTESIAN_POINT('',(5.445652825794,3.908376029922));
#1416 = CARTESIAN_POINT('',(5.479938091422,4.1787397646));
#1417 = CARTESIAN_POINT('',(5.515565426511,4.448913249337));
#1418 = CARTESIAN_POINT('',(5.579626430319,4.912222846894));
#1419 = CARTESIAN_POINT('',(5.607232202431,5.105454933043));
#1420 = CARTESIAN_POINT('',(5.635835246956,5.298534974939));
#1421 = CARTESIAN_POINT('',(5.665609933465,5.491439261207));
#1422 = CARTESIAN_POINT('',(5.696753580881,5.684124335163));
#1423 = CARTESIAN_POINT('',(5.7295965626,5.876507465464));
#1424 = CARTESIAN_POINT('',(5.764523662022,6.068480549603));
#1425 = CARTESIAN_POINT('',(5.819487432842,6.3458454229));
#1426 = CARTESIAN_POINT('',(5.837132512729,6.431710829753));
#1427 = CARTESIAN_POINT('',(5.855462415243,6.517425960984));
#1428 = CARTESIAN_POINT('',(5.874586072248,6.602967185612));
#1429 = CARTESIAN_POINT('',(5.894629259847,6.688293113622));
#1430 = CARTESIAN_POINT('',(5.915789282417,6.773329816524));
#1431 = CARTESIAN_POINT('',(5.938303735061,6.857979419632));
#1432 = CARTESIAN_POINT('',(5.97443646934,6.982557597372));
#1433 = CARTESIAN_POINT('',(5.986610692212,7.022903268961));
#1434 = CARTESIAN_POINT('',(5.999276583541,7.063090241928));
#1435 = CARTESIAN_POINT('',(6.012503111585,7.103096441999));
#1436 = CARTESIAN_POINT('',(6.026388290831,7.142873556515));
#1437 = CARTESIAN_POINT('',(6.041051555877,7.182350369114));
#1438 = CARTESIAN_POINT('',(6.056657478928,7.22142411856));
#1439 = CARTESIAN_POINT('',(6.082222407196,7.27973172808));
#1440 = CARTESIAN_POINT('',(6.091237807083,7.299371386613));
#1441 = CARTESIAN_POINT('',(6.100632219195,7.31882560932));
#1442 = CARTESIAN_POINT('',(6.110460520715,7.338066482569));
#1443 = CARTESIAN_POINT('',(6.120794142273,7.357035774066));
#1444 = CARTESIAN_POINT('',(6.13171676478,7.375648023453));
#1445 = CARTESIAN_POINT('',(6.143339560505,7.393781765811));
#1446 = CARTESIAN_POINT('',(6.163028552074,7.421195272076));
#1447 = CARTESIAN_POINT('',(6.170462131199,7.430909075337));
#1448 = CARTESIAN_POINT('',(6.178224925909,7.440358890623));
#1449 = CARTESIAN_POINT('',(6.186365500036,7.449492409883));
#1450 = CARTESIAN_POINT('',(6.194929631117,7.458223539398));
#1451 = CARTESIAN_POINT('',(6.203962410156,7.466430355445));
#1452 = CARTESIAN_POINT('',(6.213513666176,7.47394889984));
#1453 = CARTESIAN_POINT('',(6.230332447754,7.48492664167));
#1454 = CARTESIAN_POINT('',(6.237273443496,7.488897887558));
#1455 = CARTESIAN_POINT('',(6.244468085471,7.492400034764));
#1456 = CARTESIAN_POINT('',(6.251902445158,7.495346355822));
#1457 = CARTESIAN_POINT('',(6.25954875192,7.497645689403));
#1458 = CARTESIAN_POINT('',(6.267361842074,7.499215182578));
#1459 = CARTESIAN_POINT('',(6.275273587986,7.5));
#1460 = CARTESIAN_POINT('',(6.28318530718,7.5));
#1461 = ( GEOMETRIC_REPRESENTATION_CONTEXT(2) 
PARAMETRIC_REPRESENTATION_CONTEXT() REPRESENTATION_CONTEXT('2D SPACE',''
  ) );
#1462 = ORIENTED_EDGE('',*,*,#1463,.F.);
#1463 = EDGE_CURVE('',#1104,#1276,#1464,.T.);
#1464 = SURFACE_CURVE('',#1465,(#1470,#1477),.PCURVE_S1.);
#1465 = CIRCLE('',#1466,34.571428571429);
#1466 = AXIS2_PLACEMENT_3D('',#1467,#1468,#1469);
#1467 = CARTESIAN_POINT('',(0.,0.,10.));
#1468 = DIRECTION('',(0.,0.,1.));
#1469 = DIRECTION('',(1.,0.,-0.));
#1470 = PCURVE('',#626,#1471);
#1471 = DEFINITIONAL_REPRESENTATION('',(#1472),#1476);
#1472 = LINE('',#1473,#1474);
#1473 = CARTESIAN_POINT('',(-0.,-10.));
#1474 = VECTOR('',#1475,1.);
#1475 = DIRECTION('',(-1.,-0.));
#1476 = ( GEOMETRIC_REPRESENTATION_CONTEXT(2) 
PARAMETRIC_REPRESENTATION_CONTEXT() REPRESENTATION_CONTEXT('2D SPACE',''
  ) );
#1477 = PCURVE('',#1478,#1483);
#1478 = PLANE('',#1479);
#1479 = AXIS2_PLACEMENT_3D('',#1480,#1481,#1482);
#1480 = CARTESIAN_POINT('',(-35.,0.,10.));
#1481 = DIRECTION('',(0.,0.,1.));
#1482 = DIRECTION('',(1.,0.,0.));
#1483 = DEFINITIONAL_REPRESENTATION('',(#1484),#1488);
#1484 = CIRCLE('',#1485,34.571428571429);
#1485 = AXIS2_PLACEMENT_2D('',#1486,#1487);
#1486 = CARTESIAN_POINT('',(35.,0.));
#1487 = DIRECTION('',(1.,0.));
#1488 = ( GEOMETRIC_REPRESENTATION_CONTEXT(2) 
PARAMETRIC_REPRESENTATION_CONTEXT() REPRESENTATION_CONTEXT('2D SPACE',''
  ) );
#1489 = ADVANCED_FACE('',(#1490),#458,.T.);
#1490 = FACE_BOUND('',#1491,.T.);
#1491 = EDGE_LOOP('',(#1492));
#1492 = ORIENTED_EDGE('',*,*,#443,.T.);
#1493 = ADVANCED_FACE('',(#1494,#1497),#1084,.T.);
#1494 = FACE_BOUND('',#1495,.T.);
#1495 = EDGE_LOOP('',(#1496));
#1496 = ORIENTED_EDGE('',*,*,#1069,.T.);
#1497 = FACE_BOUND('',#1498,.T.);
#1498 = EDGE_LOOP('',(#1499));
#1499 = ORIENTED_EDGE('',*,*,#1500,.F.);
#1500 = EDGE_CURVE('',#1501,#1501,#1503,.T.);
#1501 = VERTEX_POINT('',#1502);
#1502 = CARTESIAN_POINT('',(28.635135135135,0.,35.));
#1503 = SURFACE_CURVE('',#1504,(#1509,#1516),.PCURVE_S1.);
#1504 = CIRCLE('',#1505,28.635135135135);
#1505 = AXIS2_PLACEMENT_3D('',#1506,#1507,#1508);
#1506 = CARTESIAN_POINT('',(0.,0.,35.));
#1507 = DIRECTION('',(0.,0.,1.));
#1508 = DIRECTION('',(1.,0.,-0.));
#1509 = PCURVE('',#1084,#1510);
#1510 = DEFINITIONAL_REPRESENTATION('',(#1511),#1515);
#1511 = CIRCLE('',#1512,28.635135135135);
#1512 = AXIS2_PLACEMENT_2D('',#1513,#1514);
#1513 = CARTESIAN_POINT('',(0.,0.));
#1514 = DIRECTION('',(1.,0.));
#1515 = ( GEOMETRIC_REPRESENTATION_CONTEXT(2) 
PARAMETRIC_REPRESENTATION_CONTEXT() REPRESENTATION_CONTEXT('2D SPACE',''
  ) );
#1516 = PCURVE('',#1517,#1522);
#1517 = CONICAL_SURFACE('',#1518,33.5,0.134321441953);
#1518 = AXIS2_PLACEMENT_3D('',#1519,#1520,#1521);
#1519 = CARTESIAN_POINT('',(0.,0.,-1.));
#1520 = DIRECTION('',(-0.,-0.,-1.));
#1521 = DIRECTION('',(1.,0.,0.));
#1522 = DEFINITIONAL_REPRESENTATION('',(#1523),#1527);
#1523 = LINE('',#1524,#1525);
#1524 = CARTESIAN_POINT('',(-0.,-36.));
#1525 = VECTOR('',#1526,1.);
#1526 = DIRECTION('',(-1.,-0.));
#1527 = ( GEOMETRIC_REPRESENTATION_CONTEXT(2) 
PARAMETRIC_REPRESENTATION_CONTEXT() REPRESENTATION_CONTEXT('2D SPACE',''
  ) );
#1528 = ADVANCED_FACE('',(#1529,#1532),#1034,.F.);
#1529 = FACE_BOUND('',#1530,.F.);
#1530 = EDGE_LOOP('',(#1531));
#1531 = ORIENTED_EDGE('',*,*,#1019,.T.);
#1532 = FACE_BOUND('',#1533,.F.);
#1533 = EDGE_LOOP('',(#1534));
#1534 = ORIENTED_EDGE('',*,*,#1535,.F.);
#1535 = EDGE_CURVE('',#1536,#1536,#1538,.T.);
#1536 = VERTEX_POINT('',#1537);
#1537 = CARTESIAN_POINT('',(33.364864864865,0.,-1.998401444325E-15));
#1538 = SURFACE_CURVE('',#1539,(#1544,#1551),.PCURVE_S1.);
#1539 = CIRCLE('',#1540,33.364864864865);
#1540 = AXIS2_PLACEMENT_3D('',#1541,#1542,#1543);
#1541 = CARTESIAN_POINT('',(0.,0.,0.));
#1542 = DIRECTION('',(0.,0.,1.));
#1543 = DIRECTION('',(1.,0.,-0.));
#1544 = PCURVE('',#1034,#1545);
#1545 = DEFINITIONAL_REPRESENTATION('',(#1546),#1550);
#1546 = CIRCLE('',#1547,33.364864864865);
#1547 = AXIS2_PLACEMENT_2D('',#1548,#1549);
#1548 = CARTESIAN_POINT('',(0.,0.));
#1549 = DIRECTION('',(1.,0.));
#1550 = ( GEOMETRIC_REPRESENTATION_CONTEXT(2) 
PARAMETRIC_REPRESENTATION_CONTEXT() REPRESENTATION_CONTEXT('2D SPACE',''
  ) );
#1551 = PCURVE('',#1517,#1552);
#1552 = DEFINITIONAL_REPRESENTATION('',(#1553),#1557);
#1553 = LINE('',#1554,#1555);
#1554 = CARTESIAN_POINT('',(-0.,-1.));
#1555 = VECTOR('',#1556,1.);
#1556 = DIRECTION('',(-1.,-0.));
#1557 = ( GEOMETRIC_REPRESENTATION_CONTEXT(2) 
PARAMETRIC_REPRESENTATION_CONTEXT() REPRESENTATION_CONTEXT('2D SPACE',''
  ) );
#1558 = ADVANCED_FACE('',(#1559),#1215,.T.);
#1559 = FACE_BOUND('',#1560,.T.);
#1560 = EDGE_LOOP('',(#1561,#1584,#1611,#1612,#1613,#1635));
#1561 = ORIENTED_EDGE('',*,*,#1562,.T.);
#1562 = EDGE_CURVE('',#1102,#1563,#1565,.T.);
#1563 = VERTEX_POINT('',#1564);
#1564 = CARTESIAN_POINT('',(-33.5,-3.673940397442E-16,20.));
#1565 = SEAM_CURVE('',#1566,(#1570,#1577),.PCURVE_S1.);
#1566 = LINE('',#1567,#1568);
#1567 = CARTESIAN_POINT('',(-33.5,-3.673940397442E-16,10.));
#1568 = VECTOR('',#1569,1.);
#1569 = DIRECTION('',(0.,0.,1.));
#1570 = PCURVE('',#1215,#1571);
#1571 = DEFINITIONAL_REPRESENTATION('',(#1572),#1576);
#1572 = LINE('',#1573,#1574);
#1573 = CARTESIAN_POINT('',(6.28318530718,-0.));
#1574 = VECTOR('',#1575,1.);
#1575 = DIRECTION('',(0.,1.));
#1576 = ( GEOMETRIC_REPRESENTATION_CONTEXT(2) 
PARAMETRIC_REPRESENTATION_CONTEXT() REPRESENTATION_CONTEXT('2D SPACE',''
  ) );
#1577 = PCURVE('',#1215,#1578);
#1578 = DEFINITIONAL_REPRESENTATION('',(#1579),#1583);
#1579 = LINE('',#1580,#1581);
#1580 = CARTESIAN_POINT('',(0.,-0.));
#1581 = VECTOR('',#1582,1.);
#1582 = DIRECTION('',(0.,1.));
#1583 = ( GEOMETRIC_REPRESENTATION_CONTEXT(2) 
PARAMETRIC_REPRESENTATION_CONTEXT() REPRESENTATION_CONTEXT('2D SPACE',''
  ) );
#1584 = ORIENTED_EDGE('',*,*,#1585,.F.);
#1585 = EDGE_CURVE('',#1563,#1563,#1586,.T.);
#1586 = SURFACE_CURVE('',#1587,(#1592,#1599),.PCURVE_S1.);
#1587 = CIRCLE('',#1588,1.5);
#1588 = AXIS2_PLACEMENT_3D('',#1589,#1590,#1591);
#1589 = CARTESIAN_POINT('',(-35.,0.,20.));
#1590 = DIRECTION('',(0.,0.,1.));
#1591 = DIRECTION('',(1.,0.,0.));
#1592 = PCURVE('',#1215,#1593);
#1593 = DEFINITIONAL_REPRESENTATION('',(#1594),#1598);
#1594 = LINE('',#1595,#1596);
#1595 = CARTESIAN_POINT('',(0.,10.));
#1596 = VECTOR('',#1597,1.);
#1597 = DIRECTION('',(1.,0.));
#1598 = ( GEOMETRIC_REPRESENTATION_CONTEXT(2) 
PARAMETRIC_REPRESENTATION_CONTEXT() REPRESENTATION_CONTEXT('2D SPACE',''
  ) );
#1599 = PCURVE('',#1600,#1605);
#1600 = PLANE('',#1601);
#1601 = AXIS2_PLACEMENT_3D('',#1602,#1603,#1604);
#1602 = CARTESIAN_POINT('',(-35.,0.,20.));
#1603 = DIRECTION('',(0.,0.,1.));
#1604 = DIRECTION('',(1.,0.,0.));
#1605 = DEFINITIONAL_REPRESENTATION('',(#1606),#1610);
#1606 = CIRCLE('',#1607,1.5);
#1607 = AXIS2_PLACEMENT_2D('',#1608,#1609);
#1608 = CARTESIAN_POINT('',(0.,0.));
#1609 = DIRECTION('',(1.,0.));
#1610 = ( GEOMETRIC_REPRESENTATION_CONTEXT(2) 
PARAMETRIC_REPRESENTATION_CONTEXT() REPRESENTATION_CONTEXT('2D SPACE',''
  ) );
#1611 = ORIENTED_EDGE('',*,*,#1562,.F.);
#1612 = ORIENTED_EDGE('',*,*,#1101,.T.);
#1613 = ORIENTED_EDGE('',*,*,#1614,.T.);
#1614 = EDGE_CURVE('',#1104,#1276,#1615,.T.);
#1615 = SURFACE_CURVE('',#1616,(#1621,#1628),.PCURVE_S1.);
#1616 = CIRCLE('',#1617,1.5);
#1617 = AXIS2_PLACEMENT_3D('',#1618,#1619,#1620);
#1618 = CARTESIAN_POINT('',(-35.,0.,10.));
#1619 = DIRECTION('',(0.,0.,1.));
#1620 = DIRECTION('',(1.,0.,0.));
#1621 = PCURVE('',#1215,#1622);
#1622 = DEFINITIONAL_REPRESENTATION('',(#1623),#1627);
#1623 = LINE('',#1624,#1625);
#1624 = CARTESIAN_POINT('',(0.,0.));
#1625 = VECTOR('',#1626,1.);
#1626 = DIRECTION('',(1.,0.));
#1627 = ( GEOMETRIC_REPRESENTATION_CONTEXT(2) 
PARAMETRIC_REPRESENTATION_CONTEXT() REPRESENTATION_CONTEXT('2D SPACE',''
  ) );
#1628 = PCURVE('',#1478,#1629);
#1629 = DEFINITIONAL_REPRESENTATION('',(#1630),#1634);
#1630 = CIRCLE('',#1631,1.5);
#1631 = AXIS2_PLACEMENT_2D('',#1632,#1633);
#1632 = CARTESIAN_POINT('',(0.,0.));
#1633 = DIRECTION('',(1.,0.));
#1634 = ( GEOMETRIC_REPRESENTATION_CONTEXT(2) 
PARAMETRIC_REPRESENTATION_CONTEXT() REPRESENTATION_CONTEXT('2D SPACE',''
  ) );
#1635 = ORIENTED_EDGE('',*,*,#1275,.T.);
#1636 = ADVANCED_FACE('',(#1637),#1478,.F.);
#1637 = FACE_BOUND('',#1638,.F.);
#1638 = EDGE_LOOP('',(#1639,#1640));
#1639 = ORIENTED_EDGE('',*,*,#1463,.F.);
#1640 = ORIENTED_EDGE('',*,*,#1614,.T.);
#1641 = ADVANCED_FACE('',(#1642),#1517,.F.);
#1642 = FACE_BOUND('',#1643,.F.);
#1643 = EDGE_LOOP('',(#1644,#1645,#1663,#1664));
#1644 = ORIENTED_EDGE('',*,*,#1535,.T.);
#1645 = ORIENTED_EDGE('',*,*,#1646,.T.);
#1646 = EDGE_CURVE('',#1536,#1501,#1647,.T.);
#1647 = SEAM_CURVE('',#1648,(#1651,#1657),.PCURVE_S1.);
#1648 = B_SPLINE_CURVE_WITH_KNOTS('',1,(#1649,#1650),.UNSPECIFIED.,.F.,
  .F.,(2,2),(0.,1.),.PIECEWISE_BEZIER_KNOTS.);
#1649 = CARTESIAN_POINT('',(33.5,0.,-1.));
#1650 = CARTESIAN_POINT('',(28.5,0.,36.));
#1651 = PCURVE('',#1517,#1652);
#1652 = DEFINITIONAL_REPRESENTATION('',(#1653),#1656);
#1653 = B_SPLINE_CURVE_WITH_KNOTS('',1,(#1654,#1655),.UNSPECIFIED.,.F.,
  .F.,(2,2),(0.,1.),.PIECEWISE_BEZIER_KNOTS.);
#1654 = CARTESIAN_POINT('',(0.,0.));
#1655 = CARTESIAN_POINT('',(0.,-37.));
#1656 = ( GEOMETRIC_REPRESENTATION_CONTEXT(2) 
PARAMETRIC_REPRESENTATION_CONTEXT() REPRESENTATION_CONTEXT('2D SPACE',''
  ) );
#1657 = PCURVE('',#1517,#1658);
#1658 = DEFINITIONAL_REPRESENTATION('',(#1659),#1662);
#1659 = B_SPLINE_CURVE_WITH_KNOTS('',1,(#1660,#1661),.UNSPECIFIED.,.F.,
  .F.,(2,2),(0.,1.),.PIECEWISE_BEZIER_KNOTS.);
#1660 = CARTESIAN_POINT('',(-6.28318530718,0.));
#1661 = CARTESIAN_POINT('',(-6.28318530718,-37.));
#1662 = ( GEOMETRIC_REPRESENTATION_CONTEXT(2) 
PARAMETRIC_REPRESENTATION_CONTEXT() REPRESENTATION_CONTEXT('2D SPACE',''
  ) );
#1663 = ORIENTED_EDGE('',*,*,#1500,.F.);
#1664 = ORIENTED_EDGE('',*,*,#1646,.F.);
#1665 = ADVANCED_FACE('',(#1666),#1600,.T.);
#1666 = FACE_BOUND('',#1667,.T.);
#1667 = EDGE_LOOP('',(#1668));
#1668 = ORIENTED_EDGE('',*,*,#1585,.T.);
#1669 = ( GEOMETRIC_REPRESENTATION_CONTEXT(3) 
GLOBAL_UNCERTAINTY_ASSIGNED_CONTEXT((#1673)) 
GLOBAL_UNIT_ASSIGNED_CONTEXT((#1670,#1671,#1672)) REPRESENTATION_CONTEXT
('Context #1','3D Context with UNIT and UNCERTAINTY') );
#1670 = ( LENGTH_UNIT() NAMED_UNIT(*) SI_UNIT(.MILLI.,.METRE.) );
#1671 = ( NAMED_UNIT(*) PLANE_ANGLE_UNIT() SI_UNIT($,.RADIAN.) );
#1672 = ( NAMED_UNIT(*) SI_UNIT($,.STERADIAN.) SOLID_ANGLE_UNIT() );
#1673 = UNCERTAINTY_MEASURE_WITH_UNIT(LENGTH_MEASURE(1.E-07),#1670,
  'distance_accuracy_value','confusion accuracy');
#1674 = PRODUCT_RELATED_PRODUCT_CATEGORY('part',$,(#7));
ENDSEC;
END-ISO-10303-21;
